<svg width="27" height="28" viewBox="0 0 27 28" fill="none" xmlns="http://www.w3.org/2000/svg">
<path opacity="0.702" d="M22.7809 27.2283C22.6809 27.2283 22.5809 27.2283 22.4809 27.2153C18.5706 26.7873 14.815 25.4492 11.5149 23.3083C8.45249 21.3516 5.8554 18.7484 3.90591 15.6813C1.76924 12.3637 0.438423 8.59221 0.019895 4.66834C-0.0266411 4.19269 0.0214317 3.71255 0.161313 3.25556C0.301195 2.79856 0.530124 2.37378 0.834928 2.00568C1.13973 1.63757 1.51437 1.33343 1.93725 1.11078C2.36014 0.888125 2.82293 0.751363 3.29892 0.708375C3.40625 0.697633 3.51405 0.692302 3.62192 0.692384H7.2799C8.15146 0.697048 8.99223 1.0151 9.64862 1.5885C10.305 2.1619 10.7332 2.95234 10.8549 3.81537C10.9977 4.88964 11.2603 5.94457 11.6379 6.96039C11.8802 7.61038 11.932 8.31598 11.7873 8.99439C11.6425 9.67279 11.3073 10.2958 10.8209 10.7903L9.94992 11.6624C11.3698 13.8932 13.2599 15.787 15.4879 17.2114L16.3539 16.3423C16.8467 15.8541 17.4691 15.5174 18.1473 15.3721C18.8256 15.2267 19.5314 15.2789 20.1809 15.5223C21.1905 15.8983 22.239 16.16 23.3069 16.3024C24.1866 16.4253 24.9907 16.8667 25.5666 17.543C26.1426 18.2192 26.4505 19.0833 26.4319 19.9714V23.5894C26.434 24.0652 26.3424 24.5369 26.1622 24.9773C25.982 25.4177 25.7168 25.8183 25.3817 26.1562C25.0467 26.4942 24.6483 26.7628 24.2095 26.9468C23.7706 27.1307 23.2998 27.2264 22.8239 27.2283H22.7809ZM7.26492 3.11237H3.61691C3.44095 3.11574 3.26769 3.15624 3.10846 3.2312C2.94923 3.30616 2.80761 3.4139 2.6929 3.54736C2.59093 3.66904 2.51412 3.80973 2.46692 3.9613C2.41971 4.11288 2.40306 4.2723 2.41791 4.43036C2.79925 7.97397 4.004 11.3793 5.93591 14.3744C7.69783 17.1489 10.0458 19.504 12.8149 21.2744C15.7942 23.2083 19.1845 24.4189 22.7149 24.8094C22.8895 24.8297 23.0664 24.8078 23.2308 24.7457C23.3952 24.6836 23.5424 24.5831 23.6599 24.4524C23.772 24.34 23.8606 24.2064 23.9207 24.0594C23.9808 23.9125 24.0111 23.7551 24.0099 23.5964V19.9304C24.0177 19.6335 23.916 19.3442 23.7242 19.1176C23.5324 18.8909 23.2639 18.7428 22.9699 18.7014C21.725 18.536 20.5026 18.2311 19.3259 17.7924C19.1098 17.7092 18.8742 17.6904 18.6476 17.7381C18.4211 17.7858 18.2131 17.8981 18.0489 18.0613L16.5199 19.5953C16.3332 19.7827 16.0901 19.9038 15.8281 19.9399C15.566 19.976 15.2994 19.9252 15.0689 19.7953C11.8547 17.9636 9.19443 15.2982 7.36889 12.0804C7.23855 11.8497 7.18753 11.5826 7.22366 11.3201C7.25979 11.0576 7.38108 10.8143 7.56891 10.6274L9.10092 9.09033C9.26195 8.92534 9.37267 8.71792 9.42013 8.49231C9.46759 8.2667 9.44981 8.03223 9.36889 7.81635C8.92839 6.63235 8.62214 5.4027 8.4559 4.15039C8.41489 3.86356 8.27216 3.60101 8.05371 3.41065C7.83526 3.22028 7.55565 3.11474 7.2659 3.11334L7.26492 3.11237Z" fill="#0A0A0A"/>
</svg>
