<svg xmlns="http://www.w3.org/2000/svg" width="95" height="95" viewBox="0 0 95 95" fill="none"><rect width="95" height="95" fill="#FFB340"></rect><path d="M75.023 42.6558H73.194V40.7827C73.194 33.9448 70.4776 27.3869 65.6425 22.5518C60.8073 17.7166 54.2494 15 47.4115 15C40.5736 15 34.0157 17.7166 29.1805 22.5518C24.3454 27.3869 21.629 33.9448 21.629 40.7827V42.6558H19.8C18.2618 42.6558 16.7865 43.2668 15.6988 44.3545C14.6111 45.4422 14 46.9173 14 48.4556V59.6855C14 61.2238 14.6111 62.6994 15.6988 63.7871C16.7865 64.8748 18.2618 65.4858 19.8 65.4858H21.729C21.9607 66.6058 22.5711 67.6118 23.4576 68.3345C24.344 69.0572 25.4523 69.4523 26.596 69.4536H28.768C30.0849 69.4523 31.3475 68.9288 32.2787 67.9976C33.21 67.0664 33.7337 65.8037 33.735 64.4868V58.8667C33.735 58.7364 33.7093 58.6077 33.6595 58.4873C33.6096 58.367 33.5366 58.2572 33.4445 58.165C33.3523 58.0729 33.243 58 33.1226 57.9502C33.0023 57.9003 32.8733 57.8745 32.743 57.8745C32.6127 57.8745 32.4837 57.9003 32.3634 57.9502C32.243 58 32.1337 58.0729 32.0416 58.165C31.9494 58.2572 31.8764 58.367 31.8265 58.4873C31.7767 58.6077 31.751 58.7364 31.751 58.8667V64.4868C31.7502 65.2775 31.4358 66.0355 30.8768 66.5947C30.3177 67.1539 29.5597 67.4687 28.769 67.4697H26.595C25.8043 67.4687 25.0463 67.1539 24.4872 66.5947C23.9282 66.0355 23.6138 65.2775 23.613 64.4868V43.6606C23.6141 42.8701 23.9286 42.1122 24.4876 41.5532C25.0466 40.9942 25.8045 40.6798 26.595 40.6787H28.768C29.5586 40.6798 30.3164 40.9942 30.8754 41.5532C31.4344 42.1122 31.7489 42.8701 31.75 43.6606V55.5605C31.75 55.8236 31.8545 56.0762 32.0406 56.2622C32.2266 56.4482 32.4789 56.5527 32.742 56.5527C33.0051 56.5527 33.2574 56.4482 33.4435 56.2622C33.6295 56.0762 33.734 55.8236 33.734 55.5605V43.6606C33.7327 42.3439 33.2091 41.0816 32.2781 40.1504C31.3471 39.2192 30.0848 38.6954 28.768 38.6938H26.595C25.5308 38.6925 24.4946 39.0353 23.641 39.6709C23.8636 34.8466 25.5563 30.2054 28.492 26.3706C28.7565 26.9525 29.1844 27.4452 29.7235 27.7886C30.2626 28.1319 30.8899 28.3111 31.529 28.3047H31.543C33.3871 28.3009 35.1811 27.7047 36.661 26.6045C39.1454 24.7862 42.05 23.6277 45.1037 23.2363C48.1574 22.845 51.2604 23.2337 54.123 24.3667C54.3677 24.4639 54.6409 24.4597 54.8827 24.3555C55.1244 24.2512 55.3148 24.0552 55.412 23.8105C55.5092 23.5659 55.5052 23.293 55.401 23.0513C55.2967 22.8095 55.1007 22.6187 54.856 22.5215C51.6806 21.2643 48.2383 20.8332 44.8509 21.2676C41.4634 21.702 38.2414 22.9881 35.486 25.0059C34.3467 25.856 32.9645 26.3175 31.543 26.3228H31.529C31.2567 26.3255 30.9899 26.2457 30.7637 26.0942C30.5374 25.9427 30.3622 25.7265 30.261 25.4736C30.1688 25.2576 30.1352 25.0213 30.1636 24.7881C30.1921 24.5549 30.2816 24.333 30.423 24.1455C32.6355 21.8818 35.278 20.0835 38.1954 18.8555C41.1128 17.6274 44.2462 16.9946 47.4115 16.9946C50.5768 16.9946 53.7102 17.6274 56.6276 18.8555C59.545 20.0835 62.1875 21.8818 64.4 24.1455C64.541 24.3331 64.6302 24.5546 64.6584 24.7876C64.6867 25.0205 64.6531 25.2568 64.561 25.4727C64.4586 25.7271 64.2815 25.9446 64.0529 26.0962C63.8244 26.2478 63.5552 26.3264 63.281 26.3218C61.8592 26.3166 60.4766 25.8551 59.337 25.0049C58.819 24.6249 58.278 24.2635 57.726 23.9365C57.6143 23.8603 57.4881 23.8079 57.3553 23.7822C57.2225 23.7566 57.0858 23.7585 56.9538 23.7876C56.8217 23.8167 56.6969 23.8726 56.5872 23.9517C56.4775 24.0307 56.3851 24.1315 56.3157 24.2476C56.2463 24.3637 56.2014 24.4929 56.1837 24.627C56.166 24.761 56.176 24.8972 56.2129 25.0273C56.2499 25.1575 56.313 25.2785 56.3985 25.3833C56.484 25.4881 56.59 25.5744 56.71 25.6367C57.21 25.9367 57.694 26.2576 58.161 26.5996C59.6447 27.702 61.4436 28.2982 63.292 28.2998C63.931 28.306 64.558 28.1265 65.0969 27.7832C65.6359 27.4399 66.0635 26.9474 66.328 26.3657C69.2638 30.2005 70.9568 34.8411 71.18 39.6655C70.3261 39.029 69.2891 38.6858 68.224 38.6875H66.055C64.7381 38.6888 63.4755 39.2128 62.5443 40.144C61.6131 41.0752 61.0893 42.3379 61.088 43.6548V64.481C61.0896 65.7977 61.6134 67.0597 62.5446 67.9907C63.4758 68.9217 64.7382 69.4455 66.055 69.4468H68.226C69.3024 69.4474 70.3496 69.0962 71.208 68.4468V68.6035C71.2051 71.5098 70.0494 74.2963 67.9945 76.3516C65.9396 78.4068 63.1533 79.5635 60.247 79.5669H55.568C55.9446 78.9447 56.1489 78.2335 56.16 77.5063C56.1711 76.7792 55.9885 76.0621 55.6311 75.4287C55.2736 74.7953 54.7542 74.2682 54.1259 73.9019C53.4977 73.5355 52.7833 73.343 52.056 73.3438H48.951C47.8626 73.3438 46.8187 73.7762 46.049 74.5459C45.2794 75.3155 44.847 76.3593 44.847 77.4478C44.847 78.5362 45.2794 79.58 46.049 80.3496C46.8187 81.1193 47.8626 81.5518 48.951 81.5518H60.251C63.6833 81.5473 66.9737 80.1815 69.4006 77.7544C71.8275 75.3273 73.1928 72.0368 73.197 68.6045V65.4766H75.026C75.7877 65.4766 76.5419 65.3266 77.2456 65.0352C77.9493 64.7437 78.5886 64.3164 79.1272 63.7778C79.6658 63.2393 80.093 62.6002 80.3845 61.8965C80.676 61.1928 80.826 60.4384 80.826 59.6768V48.4468C80.8236 46.9096 80.2111 45.4359 79.123 44.3501C78.0349 43.2642 76.5602 42.655 75.023 42.6558ZM21.629 47.6226V63.4937H19.8C18.7894 63.4926 17.8205 63.0907 17.106 62.376C16.3915 61.6613 15.9898 60.6922 15.989 59.6816V48.4517C15.9901 47.4411 16.3918 46.4721 17.1063 45.7573C17.8207 45.0425 18.7894 44.6403 19.8 44.6387H21.629V47.6226ZM71.209 64.4795C71.2082 65.2702 70.8938 66.0287 70.3348 66.5879C69.7757 67.1471 69.0177 67.4618 68.227 67.4629H66.055C65.2643 67.4618 64.5063 67.1471 63.9472 66.5879C63.3882 66.0287 63.0738 65.2702 63.073 64.4795V43.6538C63.0741 42.8633 63.3886 42.1054 63.9476 41.5464C64.5066 40.9874 65.2644 40.6729 66.055 40.6719H68.227C69.0175 40.6729 69.7754 40.9874 70.3344 41.5464C70.8934 42.1054 71.208 42.8633 71.209 43.6538V64.4795ZM52.056 79.5679H48.951C48.3971 79.5558 47.87 79.3271 47.4825 78.9312C47.095 78.5352 46.878 78.0032 46.878 77.4492C46.878 76.8952 47.095 76.3633 47.4825 75.9673C47.87 75.5713 48.3971 75.3426 48.951 75.3306H52.056C52.6099 75.3426 53.137 75.5713 53.5245 75.9673C53.912 76.3633 54.129 76.8952 54.129 77.4492C54.129 78.0032 53.912 78.5352 53.5245 78.9312C53.137 79.3271 52.6099 79.5558 52.056 79.5679ZM78.834 59.6816C78.833 60.6921 78.4311 61.6609 77.7167 62.3755C77.0022 63.0901 76.0335 63.4923 75.023 63.4937H73.194V44.6406H75.023C76.0333 44.6419 77.0019 45.0439 77.7163 45.7583C78.4308 46.4727 78.8327 47.4413 78.834 48.4517V59.6816Z" fill="black"></path></svg>