<svg xmlns="http://www.w3.org/2000/svg" width="83" height="84" viewBox="0 0 83 84" fill="none"><rect x="0.0327148" y="20.3801" width="65" height="63" fill="#FFB340"></rect><path d="M63.8535 61.3274L40.2764 61.3274" stroke="black" stroke-width="5.35843" stroke-linecap="round"></path><path d="M52.0639 60.2559L52.0639 40.9655" stroke="black" stroke-width="5.35843" stroke-linecap="round"></path><path d="M24.1991 4.52848C24.1991 3.93661 24.6789 3.4568 25.2708 3.4568L52.0629 3.4568L78.855 3.4568C79.4469 3.4568 79.9267 3.93661 79.9267 4.52849V21.6754V38.8224C79.9267 39.4143 79.4469 39.8941 78.855 39.8941L52.0629 39.8941L25.2708 39.8941C24.6789 39.8941 24.1991 39.4143 24.1991 38.8224V21.6754V4.52848Z" stroke="black" stroke-width="5.35843"></path><path d="M36.2565 25.1583C36.2565 25.1583 42.9249 28.6922 50.7243 25.9621C62.1525 21.9617 66.077 15.2669 66.077 15.2669M66.077 15.2669L54.7431 14.1735M66.077 15.2669L67.0675 27.3017" stroke="#0A0A0A" stroke-width="5.35843" stroke-linecap="round"></path></svg>