<svg xmlns="http://www.w3.org/2000/svg" width="89" height="92" viewBox="0 0 89 92" fill="none"><rect y="28.3232" width="65" height="63" fill="#FFB340"></rect><path d="M11.0385 7.5022L11.0385 77.1617C11.0385 77.4577 11.2784 77.6976 11.5744 77.6976L81.2339 77.6976" stroke="#040404" stroke-width="5.35843" stroke-linecap="round"></path><path d="M49.9743 39.1398V29.7168C49.9743 27.8983 48.295 26.424 46.2234 26.424L28.8997 26.424C26.8281 26.424 25.1488 27.8983 25.1488 29.7168V51.0351M37.5616 26.6592V19.3681C37.5616 17.5495 39.2409 16.0753 41.3125 16.0753L68.1046 16.0753C70.1761 16.0753 71.8555 17.5495 71.8555 19.3681V29.7168" stroke="#0A0A0A" stroke-width="5.35843"></path><path d="M20.1487 53.9068C20.1487 52.321 21.3099 51.0355 22.7424 51.0355H25.1508H27.5593C28.9917 51.0355 30.153 52.321 30.153 53.9068V74.8263C30.153 76.412 28.9917 77.6976 27.5593 77.6976H22.7424C21.3099 77.6976 20.1487 76.412 20.1487 74.8263V53.9068Z" stroke="#040404" stroke-width="5.35843"></path><path d="M44.9741 42.0114C44.9741 40.4257 46.1354 39.1401 47.5678 39.1401H49.9763H52.3847C53.8172 39.1401 54.9784 40.4257 54.9784 42.0114V74.8263C54.9784 76.412 53.8172 77.6976 52.3847 77.6976H47.5678C46.1354 77.6976 44.9741 76.412 44.9741 74.8263V42.0114Z" stroke="#040404" stroke-width="5.35843"></path><path d="M66.767 34.8087C66.767 32.9029 67.9487 31.3579 69.4065 31.3579L71.8575 31.3579H74.3085C75.7662 31.3579 76.948 32.9029 76.948 34.8087V74.2467C76.948 76.1526 75.7662 77.6976 74.3085 77.6976H69.4065C67.9487 77.6976 66.767 76.1526 66.767 74.2467V34.8087Z" stroke="#040404" stroke-width="5.35843"></path></svg>