<svg xmlns="http://www.w3.org/2000/svg" width="92" height="86" viewBox="0 0 92 86" fill="none"><rect y="21.3232" width="65" height="63" fill="#FFB340"></rect><path d="M12.9643 58.4076H24.217L24.217 61.2654V66.8025L24.217 69.6603L12.9643 69.6603V66.8025V61.2654L12.9643 58.4076Z" stroke="black" stroke-width="5.35843"></path><path d="M42.9722 16.0756L54.2249 16.0756L54.2249 18.9334V24.4704L54.2249 27.3283L42.9722 27.3283V24.4704V18.9334L42.9722 16.0756Z" stroke="black" stroke-width="5.35843"></path><path d="M42.9722 58.4076H54.2249L54.2249 61.2654V66.8025L54.2249 69.6603L42.9722 69.6603V66.8025V61.2654L42.9722 58.4076Z" stroke="black" stroke-width="5.35843"></path><path d="M58.4905 42.9799L48.2303 56.8003M58.4905 42.9799L48.2303 28.9365M58.4905 42.9799L28.5831 42.9799M58.4905 42.9799H70.2996M28.5831 42.9799L18.3229 56.8003M28.5831 42.9799L18.3229 28.9365" stroke="black" stroke-width="5.35843" stroke-linecap="round"></path><path d="M12.9643 16.0756L24.217 16.0756L24.217 18.9334V24.4704L24.217 27.3283L12.9643 27.3283V24.4704V18.9334L12.9643 16.0756Z" stroke="black" stroke-width="5.35843"></path><path d="M84.233 36.9743V48.227L81.3752 48.227H75.8382L72.9803 48.227L72.9803 36.9743H75.8382H81.3752L84.233 36.9743Z" stroke="black" stroke-width="5.35843"></path></svg>