<svg xmlns="http://www.w3.org/2000/svg" width="97" height="95" viewBox="0 0 97 95" fill="none"><rect x="0.0327148" y="31.6694" width="65" height="63" fill="#FFB340"></rect><path d="M23.2073 3.54858L23.2073 73.2081C23.2073 73.504 23.4472 73.7439 23.7431 73.7439L93.4026 73.7439" stroke="black" stroke-width="5.35843" stroke-linecap="round"></path><path d="M43.0339 43.0222V33.1805C43.0339 33.0917 42.9619 33.0198 42.8731 33.0198H38.7471H34.6211C34.5324 33.0198 34.4604 33.0917 34.4604 33.1805V43.0222V53.0246V62.8662C34.4604 62.955 34.5324 63.027 34.6211 63.027H38.7471H42.8731C42.9619 63.027 43.0339 62.955 43.0339 62.8662V53.0246V43.0222Z" stroke="black" stroke-width="5.35843" stroke-linecap="round"></path><path d="M62.3247 49.8099V43.3619C62.3247 43.2731 62.2527 43.2012 62.1639 43.2012H58.038H53.912C53.8232 43.2012 53.7512 43.2731 53.7512 43.3619V49.8099V56.4186V62.8666C53.7512 62.9554 53.8232 63.0273 53.912 63.0273H58.038H62.1639C62.2527 63.0273 62.3247 62.9554 62.3247 62.8666V56.4186V49.8099Z" stroke="black" stroke-width="5.35843" stroke-linecap="round"></path><path d="M81.613 31.9484V16.5697C81.613 16.4809 81.5411 16.4089 81.4523 16.4089L77.3263 16.4089H73.2003C73.1115 16.4089 73.0396 16.4809 73.0396 16.5697V31.9484V47.4878V62.8665C73.0396 62.9553 73.1115 63.0272 73.2003 63.0272H77.3263H81.4523C81.5411 63.0272 81.613 62.9553 81.613 62.8665V47.4878V31.9484Z" stroke="black" stroke-width="5.35843" stroke-linecap="round"></path></svg>