<svg xmlns="http://www.w3.org/2000/svg" width="82" height="77" viewBox="0 0 82 77" fill="none"><rect y="13.5083" width="65" height="63" fill="#FFB340"></rect><path d="M62.3337 61.428L38.7567 61.428" stroke="black" stroke-width="5.35843" stroke-linecap="round"></path><path d="M50.5442 60.3567L50.5442 41.0664" stroke="black" stroke-width="5.35843" stroke-linecap="round"></path><path d="M22.6792 4.62907C22.6792 4.0372 23.159 3.55739 23.7509 3.55739L50.543 3.55739L77.3351 3.55739C77.927 3.55739 78.4068 4.0372 78.4068 4.62907V21.776V38.923C78.4068 39.5149 77.927 39.9947 77.3351 39.9947L50.543 39.9947L23.7509 39.9947C23.159 39.9947 22.6792 39.5149 22.6792 38.923V21.776V4.62907Z" stroke="black" stroke-width="5.35843"></path><path d="M36.6117 20.7039L36.6117 29.8132" stroke="#040404" stroke-width="5.35843" stroke-linecap="round"></path><path d="M64.4766 15.8813L64.4766 29.8133" stroke="#040404" stroke-width="5.35843" stroke-linecap="round"></path><path d="M50.5442 11.595L50.5442 29.8136" stroke="#040404" stroke-width="5.35843" stroke-linecap="round"></path></svg>