<svg width="219" height="229" viewBox="0 0 219 229" fill="none" xmlns="http://www.w3.org/2000/svg">
<path d="M211.713 225.646L212.285 222.293L215.642 221.734L212.285 221.162L211.713 217.809L211.154 221.162L207.797 221.734L211.154 222.293L211.713 225.646Z" fill="#FFC400"/>
<path d="M218.681 221.734C218.681 217.898 215.566 214.785 211.726 214.785C207.887 214.785 204.771 217.898 204.771 221.734C204.771 225.57 207.887 228.683 211.726 228.683C215.566 228.683 218.681 225.57 218.681 221.734Z" stroke="#FFC400" stroke-width="0.5" stroke-miterlimit="10"/>
<path d="M174.549 225.646L175.108 222.293L178.465 221.734L175.108 221.162L174.549 217.809L173.99 221.162L170.633 221.734L173.99 222.293L174.549 225.646Z" fill="#FFC400"/>
<path d="M181.504 221.734C181.504 217.898 178.389 214.785 174.549 214.785C170.709 214.785 167.594 217.898 167.594 221.734C167.594 225.57 170.709 228.683 174.549 228.683C178.389 228.683 181.504 225.57 181.504 221.734Z" stroke="#FFC400" stroke-width="0.5" stroke-miterlimit="10"/>
<path d="M193.136 201.917L193.695 198.563L197.052 198.004L193.695 197.445L193.136 194.092L192.564 197.445L189.207 198.004L192.564 198.563L193.136 201.917Z" fill="#FFC400"/>
<path d="M200.092 198.004C200.092 194.168 196.977 191.056 193.137 191.056C189.297 191.056 186.182 194.168 186.182 198.004C186.182 201.841 189.297 204.953 193.137 204.953C196.977 204.953 200.092 201.841 200.092 198.004Z" stroke="#FFC400" stroke-width="0.5" stroke-miterlimit="10"/>
<path d="M155.959 201.917L156.519 198.563L159.875 198.004L156.519 197.445L155.959 194.092L155.4 197.445L152.043 198.004L155.4 198.563L155.959 201.917Z" fill="#FFC400"/>
<path d="M162.928 198.004C162.928 194.168 159.812 191.056 155.973 191.056C152.133 191.056 149.018 194.168 149.018 198.004C149.018 201.841 152.133 204.953 155.973 204.953C159.8 204.953 162.928 201.841 162.928 198.004Z" stroke="#FFC400" stroke-width="0.5" stroke-miterlimit="10"/>
<path d="M211.713 177.959L212.285 174.605L215.642 174.046L212.285 173.487L211.713 170.134L211.154 173.487L207.797 174.046L211.154 174.605L211.713 177.959Z" fill="#FFC400"/>
<path d="M218.681 174.046C218.681 170.21 215.566 167.098 211.726 167.098C207.887 167.098 204.771 170.21 204.771 174.046C204.771 177.883 207.887 180.995 211.726 180.995C215.566 180.995 218.681 177.883 218.681 174.046Z" stroke="#FFC400" stroke-width="0.5" stroke-miterlimit="10"/>
<path d="M174.549 177.959L175.108 174.605L178.465 174.046L175.108 173.487L174.549 170.134L173.99 173.487L170.633 174.046L173.99 174.605L174.549 177.959Z" fill="#FFC400"/>
<path d="M174.549 167.098C178.39 167.098 181.504 170.209 181.504 174.046C181.504 177.884 178.39 180.995 174.549 180.995C170.708 180.995 167.594 177.884 167.594 174.046C167.594 170.209 170.708 167.098 174.549 167.098Z" stroke="#FFC400" stroke-width="0.5" stroke-miterlimit="10"/>
<path d="M137.369 177.959L137.941 174.605L141.298 174.046L137.941 173.487L137.369 170.134L136.81 173.487L133.453 174.046L136.81 174.605L137.369 177.959Z" fill="#FFC400"/>
<path d="M144.338 174.046C144.338 170.21 141.223 167.098 137.383 167.098C133.543 167.098 130.428 170.21 130.428 174.046C130.428 177.883 133.543 180.995 137.383 180.995C141.223 180.995 144.338 177.883 144.338 174.046Z" stroke="#FFC400" stroke-width="0.5" stroke-miterlimit="10"/>
<path d="M193.136 154.242L193.695 150.889L197.052 150.317L193.695 149.758L193.136 146.404L192.564 149.758L189.207 150.317L192.564 150.889L193.136 154.242Z" fill="#FFC400"/>
<path d="M200.092 150.317C200.092 146.481 196.977 143.368 193.137 143.368C189.297 143.368 186.182 146.481 186.182 150.317C186.182 154.153 189.297 157.266 193.137 157.266C196.977 157.266 200.092 154.166 200.092 150.317Z" stroke="#FFC400" stroke-width="0.5" stroke-miterlimit="10"/>
<path d="M155.959 154.242L156.519 150.889L159.875 150.317L156.519 149.758L155.959 146.404L155.4 149.758L152.043 150.317L155.4 150.889L155.959 154.242Z" fill="#FFC400"/>
<path d="M162.928 150.317C162.928 146.481 159.812 143.368 155.973 143.368C152.133 143.368 149.018 146.481 149.018 150.317C149.018 154.153 152.133 157.266 155.973 157.266C159.8 157.278 162.928 154.166 162.928 150.317Z" stroke="#FFC400" stroke-width="0.5" stroke-miterlimit="10"/>
<path d="M118.794 154.242L119.354 150.889L122.71 150.317L119.354 149.758L118.794 146.404L118.222 149.758L114.865 150.317L118.222 150.889L118.794 154.242Z" fill="#FFC400"/>
<path d="M125.75 150.317C125.75 146.481 122.635 143.368 118.795 143.368C114.955 143.368 111.84 146.481 111.84 150.317C111.84 154.153 114.955 157.266 118.795 157.266C122.635 157.278 125.75 154.166 125.75 150.317Z" stroke="#FFC400" stroke-width="0.5" stroke-miterlimit="10"/>
<path d="M211.713 130.284L212.285 126.931L215.642 126.359L212.285 125.8L211.713 122.446L211.154 125.8L207.797 126.359L211.154 126.931L211.713 130.284Z" fill="#FFC400"/>
<path d="M218.681 126.359C218.681 122.523 215.566 119.41 211.726 119.41C207.887 119.41 204.771 122.523 204.771 126.359C204.771 130.195 207.887 133.308 211.726 133.308C215.566 133.32 218.681 130.208 218.681 126.359Z" stroke="#FFC400" stroke-width="0.5" stroke-miterlimit="10"/>
<path d="M174.549 130.283L175.108 126.93L178.465 126.358L175.108 125.799L174.549 122.445L173.99 125.799L170.633 126.358L173.99 126.93L174.549 130.283Z" fill="#FFC400"/>
<path d="M181.504 126.358C181.504 122.522 178.389 119.409 174.549 119.409C170.709 119.409 167.594 122.522 167.594 126.358C167.594 130.194 170.709 133.307 174.549 133.307C178.389 133.319 181.504 130.207 181.504 126.358Z" stroke="#FFC400" stroke-width="0.5" stroke-miterlimit="10"/>
<path d="M137.369 130.283L137.941 126.93L141.298 126.358L137.941 125.799L137.369 122.445L136.81 125.799L133.453 126.358L136.81 126.93L137.369 130.283Z" fill="#FFC400"/>
<path d="M144.338 126.358C144.338 122.522 141.223 119.409 137.383 119.409C133.543 119.409 130.428 122.522 130.428 126.358C130.428 130.194 133.543 133.307 137.383 133.307C141.223 133.319 144.338 130.207 144.338 126.358Z" stroke="#FFC400" stroke-width="0.5" stroke-miterlimit="10"/>
<path d="M100.205 130.284L100.765 126.931L104.121 126.359L100.765 125.8L100.205 122.446L99.6458 125.8L96.2891 126.359L99.6458 126.931L100.205 130.284Z" fill="#FFC400"/>
<path d="M107.16 126.359C107.16 122.523 104.045 119.41 100.205 119.41C96.3651 119.41 93.25 122.523 93.25 126.359C93.25 130.195 96.3651 133.308 100.205 133.308C104.045 133.32 107.16 130.208 107.16 126.359Z" stroke="#FFC400" stroke-width="0.5" stroke-miterlimit="10"/>
<path d="M193.136 106.555L193.695 103.201L197.052 102.642L193.695 102.07L193.136 98.7168L192.564 102.07L189.207 102.642L192.564 103.201L193.136 106.555Z" fill="#FFC400"/>
<path d="M193.137 95.6936C196.978 95.6936 200.092 98.8046 200.092 102.642C200.092 106.48 196.978 109.591 193.137 109.591C189.296 109.591 186.182 106.48 186.182 102.642C186.182 98.8046 189.296 95.6936 193.137 95.6936Z" stroke="#FFC400" stroke-width="0.5" stroke-miterlimit="10"/>
<path d="M155.959 106.555L156.519 103.201L159.875 102.642L156.519 102.07L155.959 98.7168L155.4 102.07L152.043 102.642L155.4 103.201L155.959 106.555Z" fill="#FFC400"/>
<path d="M162.928 102.642C162.928 98.8058 159.812 95.6936 155.973 95.6936C152.133 95.6936 149.018 98.8058 149.018 102.642C149.018 106.479 152.133 109.591 155.973 109.591C159.8 109.591 162.928 106.479 162.928 102.642Z" stroke="#FFC400" stroke-width="0.5" stroke-miterlimit="10"/>
<path d="M118.794 106.554L119.354 103.2L122.71 102.641L119.354 102.069L118.794 98.7159L118.222 102.069L114.865 102.641L118.222 103.2L118.794 106.554Z" fill="#FFC400"/>
<path d="M118.795 95.6926C122.636 95.6926 125.75 98.8036 125.75 102.641C125.75 106.479 122.636 109.59 118.795 109.59C114.954 109.59 111.84 106.479 111.84 102.641C111.84 98.8036 114.954 95.6926 118.795 95.6926Z" stroke="#FFC400" stroke-width="0.5" stroke-miterlimit="10"/>
<path d="M81.6154 106.555L82.1875 103.201L85.5443 102.642L82.1875 102.07L81.6154 98.7168L81.0559 102.07L77.6992 102.642L81.0559 103.201L81.6154 106.555Z" fill="#FFC400"/>
<path d="M88.5838 102.642C88.5838 98.8058 85.4687 95.6936 81.6288 95.6936C77.789 95.6936 74.6738 98.8058 74.6738 102.642C74.6738 106.479 77.789 109.591 81.6288 109.591C85.4687 109.591 88.5838 106.479 88.5838 102.642Z" stroke="#FFC400" stroke-width="0.5" stroke-miterlimit="10"/>
<path d="M211.713 82.5957L212.285 79.2421L215.642 78.6831L212.285 78.1115L211.713 74.7579L211.154 78.1115L207.797 78.6831L211.154 79.2421L211.713 82.5957Z" fill="#FFC400"/>
<path d="M218.681 78.6832C218.681 74.8468 215.566 71.7346 211.726 71.7346C207.887 71.7346 204.771 74.8468 204.771 78.6832C204.771 82.5196 207.887 85.6318 211.726 85.6318C215.566 85.6318 218.681 82.5196 218.681 78.6832Z" stroke="#FFC400" stroke-width="0.5" stroke-miterlimit="10"/>
<path d="M174.549 82.5957L175.108 79.2421L178.465 78.6831L175.108 78.1115L174.549 74.7579L173.99 78.1115L170.633 78.6831L173.99 79.2421L174.549 82.5957Z" fill="#FFC400"/>
<path d="M181.504 78.6832C181.504 74.8468 178.389 71.7346 174.549 71.7346C170.709 71.7346 167.594 74.8468 167.594 78.6832C167.594 82.5196 170.709 85.6318 174.549 85.6318C178.389 85.6318 181.504 82.5196 181.504 78.6832Z" stroke="#FFC400" stroke-width="0.5" stroke-miterlimit="10"/>
<path d="M137.369 82.5967L137.941 79.243L141.298 78.6841L137.941 78.1125L137.369 74.7588L136.81 78.1125L133.453 78.6841L136.81 79.243L137.369 82.5967Z" fill="#FFC400"/>
<path d="M144.338 78.6842C144.338 74.8478 141.223 71.7355 137.383 71.7355C133.543 71.7355 130.428 74.8478 130.428 78.6842C130.428 82.5205 133.543 85.6328 137.383 85.6328C141.223 85.6328 144.338 82.5205 144.338 78.6842Z" stroke="#FFC400" stroke-width="0.5" stroke-miterlimit="10"/>
<path d="M100.205 82.5957L100.765 79.2421L104.121 78.6831L100.765 78.1115L100.205 74.7579L99.6458 78.1115L96.2891 78.6831L99.6458 79.2421L100.205 82.5957Z" fill="#FFC400"/>
<path d="M107.16 78.6832C107.16 74.8468 104.045 71.7346 100.205 71.7346C96.3651 71.7346 93.25 74.8468 93.25 78.6832C93.25 82.5196 96.3651 85.6318 100.205 85.6318C104.045 85.6318 107.16 82.5196 107.16 78.6832Z" stroke="#FFC400" stroke-width="0.5" stroke-miterlimit="10"/>
<path d="M63.0383 82.5957L63.5977 79.2421L66.9544 78.6831L63.5977 78.1115L63.0383 74.7579L62.4661 78.1115L59.1094 78.6831L62.4661 79.2421L63.0383 82.5957Z" fill="#FFC400"/>
<path d="M69.994 78.6832C69.994 74.8468 66.8789 71.7346 63.039 71.7346C59.1991 71.7346 56.084 74.8468 56.084 78.6832C56.084 82.5196 59.1991 85.6318 63.039 85.6318C66.8789 85.6318 69.994 82.5196 69.994 78.6832Z" stroke="#FFC400" stroke-width="0.5" stroke-miterlimit="10"/>
<path d="M193.136 58.8672L193.695 55.5135L197.052 54.9546L193.695 54.3957L193.136 51.042L192.564 54.3957L189.207 54.9546L192.564 55.5135L193.136 58.8672Z" fill="#FFC400"/>
<path d="M200.092 54.9547C200.092 51.1183 196.977 48.0061 193.137 48.0061C189.297 48.0061 186.182 51.1183 186.182 54.9547C186.182 58.791 189.297 61.9033 193.137 61.9033C196.977 61.9033 200.092 58.791 200.092 54.9547Z" stroke="#FFC400" stroke-width="0.5" stroke-miterlimit="10"/>
<path d="M155.959 58.8662L156.519 55.5126L159.875 54.9536L156.519 54.3947L155.959 51.0411L155.4 54.3947L152.043 54.9536L155.4 55.5126L155.959 58.8662Z" fill="#FFC400"/>
<path d="M162.928 54.9537C162.928 51.1174 159.812 48.0051 155.973 48.0051C152.133 48.0051 149.018 51.1174 149.018 54.9537C149.018 58.7901 152.133 61.9023 155.973 61.9023C159.8 61.9023 162.928 58.7901 162.928 54.9537Z" stroke="#FFC400" stroke-width="0.5" stroke-miterlimit="10"/>
<path d="M118.794 58.8672L119.354 55.5135L122.71 54.9546L119.354 54.3957L118.794 51.042L118.222 54.3957L114.865 54.9546L118.222 55.5135L118.794 58.8672Z" fill="#FFC400"/>
<path d="M125.75 54.9547C125.75 51.1183 122.635 48.0061 118.795 48.0061C114.955 48.0061 111.84 51.1183 111.84 54.9547C111.84 58.791 114.955 61.9033 118.795 61.9033C122.635 61.9033 125.75 58.791 125.75 54.9547Z" stroke="#FFC400" stroke-width="0.5" stroke-miterlimit="10"/>
<path d="M81.6154 58.8662L82.1875 55.5126L85.5443 54.9536L82.1875 54.3947L81.6154 51.0411L81.0559 54.3947L77.6992 54.9536L81.0559 55.5126L81.6154 58.8662Z" fill="#FFC400"/>
<path d="M88.5838 54.9537C88.5838 51.1174 85.4687 48.0051 81.6288 48.0051C77.789 48.0051 74.6738 51.1174 74.6738 54.9537C74.6738 58.7901 77.789 61.9023 81.6288 61.9023C85.4687 61.9023 88.5838 58.7901 88.5838 54.9537Z" stroke="#FFC400" stroke-width="0.5" stroke-miterlimit="10"/>
<path d="M44.4513 58.8672L45.0108 55.5135L48.3675 54.9546L45.0108 54.3957L44.4513 51.042L43.8919 54.3957L40.5352 54.9546L43.8919 55.5135L44.4513 58.8672Z" fill="#FFC400"/>
<path d="M51.4061 54.9547C51.4061 51.1183 48.291 48.0061 44.4511 48.0061C40.6112 48.0061 37.4961 51.1183 37.4961 54.9547C37.4961 58.791 40.6112 61.9033 44.4511 61.9033C48.291 61.9033 51.4061 58.791 51.4061 54.9547Z" stroke="#FFC400" stroke-width="0.5" stroke-miterlimit="10"/>
<path d="M211.713 34.9084L212.285 31.5548L215.642 30.9959L212.285 30.4369L211.713 27.0833L211.154 30.4369L207.797 30.9959L211.154 31.5548L211.713 34.9084Z" fill="#FFC400"/>
<path d="M218.681 30.9959C218.681 27.1596 215.566 24.0473 211.726 24.0473C207.887 24.0473 204.771 27.1596 204.771 30.9959C204.771 34.8323 207.887 37.9446 211.726 37.9446C215.566 37.9446 218.681 34.8323 218.681 30.9959Z" stroke="#FFC400" stroke-width="0.5" stroke-miterlimit="10"/>
<path d="M174.549 34.9082L175.108 31.5546L178.465 30.9956L175.108 30.4367L174.549 27.083L173.99 30.4367L170.633 30.9956L173.99 31.5546L174.549 34.9082Z" fill="#FFC400"/>
<path d="M174.549 24.0471C178.39 24.0471 181.504 27.1581 181.504 30.9957C181.504 34.8333 178.39 37.9443 174.549 37.9443C170.708 37.9443 167.594 34.8333 167.594 30.9957C167.594 27.1581 170.708 24.0471 174.549 24.0471Z" stroke="#FFC400" stroke-width="0.5" stroke-miterlimit="10"/>
<path d="M137.369 34.9082L137.941 31.5546L141.298 30.9956L137.941 30.4367L137.369 27.083L136.81 30.4367L133.453 30.9956L136.81 31.5546L137.369 34.9082Z" fill="#FFC400"/>
<path d="M144.338 30.9957C144.338 27.1593 141.223 24.0471 137.383 24.0471C133.543 24.0471 130.428 27.1593 130.428 30.9957C130.428 34.8321 133.543 37.9443 137.383 37.9443C141.223 37.9443 144.338 34.8321 144.338 30.9957Z" stroke="#FFC400" stroke-width="0.5" stroke-miterlimit="10"/>
<path d="M100.205 34.9084L100.765 31.5548L104.121 30.9959L100.765 30.4369L100.205 27.0833L99.6458 30.4369L96.2891 30.9959L99.6458 31.5548L100.205 34.9084Z" fill="#FFC400"/>
<path d="M100.205 24.0473C104.046 24.0473 107.16 27.1583 107.16 30.9959C107.16 34.8336 104.046 37.9446 100.205 37.9446C96.3639 37.9446 93.25 34.8336 93.25 30.9959C93.25 27.1583 96.3639 24.0473 100.205 24.0473Z" stroke="#FFC400" stroke-width="0.5" stroke-miterlimit="10"/>
<path d="M63.0383 34.9082L63.5977 31.5546L66.9544 30.9956L63.5977 30.4367L63.0383 27.083L62.4661 30.4367L59.1094 30.9956L62.4661 31.5546L63.0383 34.9082Z" fill="#FFC400"/>
<path d="M69.994 30.9957C69.994 27.1593 66.8789 24.0471 63.039 24.0471C59.1991 24.0471 56.084 27.1593 56.084 30.9957C56.084 34.8321 59.1991 37.9443 63.039 37.9443C66.8789 37.9443 69.994 34.8321 69.994 30.9957Z" stroke="#FFC400" stroke-width="0.5" stroke-miterlimit="10"/>
<path d="M25.8615 34.9084L26.4209 31.5548L29.7776 30.9959L26.4209 30.4369L25.8615 27.0833L25.302 30.4369L21.9453 30.9959L25.302 31.5548L25.8615 34.9084Z" fill="#FFC400"/>
<path d="M25.8613 24.0473C29.7024 24.0473 32.8163 27.1583 32.8163 30.9959C32.8163 34.8336 29.7024 37.9446 25.8613 37.9446C22.0201 37.9446 18.9063 34.8336 18.9063 30.9959C18.9063 27.1583 22.0201 24.0473 25.8613 24.0473Z" stroke="#FFC400" stroke-width="0.5" stroke-miterlimit="10"/>
<path d="M193.136 11.1914L193.695 7.83777L197.052 7.26613L193.695 6.70719L193.136 3.35355L192.564 6.70719L189.207 7.26613L192.564 7.83777L193.136 11.1914Z" fill="#FFC400"/>
<path d="M200.092 7.26621C200.092 3.42985 196.977 0.317575 193.137 0.317574C189.297 0.317574 186.182 3.42985 186.182 7.26621C186.182 11.1026 189.297 14.2148 193.137 14.2148C196.977 14.2148 200.092 11.1153 200.092 7.26621Z" stroke="#FFC400" stroke-width="0.5" stroke-miterlimit="10"/>
<path d="M155.959 11.1914L156.519 7.83777L159.875 7.26613L156.519 6.70719L155.959 3.35355L155.4 6.70719L152.043 7.26613L155.4 7.83777L155.959 11.1914Z" fill="#FFC400"/>
<path d="M162.928 7.26617C162.928 3.42981 159.812 0.317536 155.973 0.317536C152.133 0.317535 149.018 3.42981 149.018 7.26617C149.018 11.1025 152.133 14.2148 155.973 14.2148C159.8 14.2275 162.928 11.1152 162.928 7.26617Z" stroke="#FFC400" stroke-width="0.5" stroke-miterlimit="10"/>
<path d="M118.794 11.1914L119.354 7.83777L122.71 7.26613L119.354 6.70719L118.794 3.35355L118.222 6.70719L114.865 7.26613L118.222 7.83777L118.794 11.1914Z" fill="#FFC400"/>
<path d="M125.75 7.26617C125.75 3.42981 122.635 0.317536 118.795 0.317536C114.955 0.317535 111.84 3.42981 111.84 7.26617C111.84 11.1025 114.955 14.2148 118.795 14.2148C122.635 14.2275 125.75 11.1152 125.75 7.26617Z" stroke="#FFC400" stroke-width="0.5" stroke-miterlimit="10"/>
<path d="M81.6154 11.1917L82.1875 7.83802L85.5443 7.26638L82.1875 6.70743L81.6154 3.3538L81.0559 6.70743L77.6992 7.26638L81.0559 7.83801L81.6154 11.1917Z" fill="#FFC400"/>
<path d="M88.5838 7.26642C88.5838 3.43006 85.4687 0.31778 81.6288 0.31778C77.789 0.317779 74.6738 3.43006 74.6738 7.26641C74.6738 11.1028 77.789 14.215 81.6288 14.2151C85.4687 14.2278 88.5838 11.1155 88.5838 7.26642Z" stroke="#FFC400" stroke-width="0.5" stroke-miterlimit="10"/>
<path d="M44.4513 11.1914L45.0108 7.83777L48.3675 7.26613L45.0108 6.70719L44.4513 3.35355L43.8919 6.70719L40.5352 7.26613L43.8919 7.83777L44.4513 11.1914Z" fill="#FFC400"/>
<path d="M51.4061 7.26617C51.4061 3.42981 48.291 0.317536 44.4511 0.317536C40.6112 0.317535 37.4961 3.42981 37.4961 7.26617C37.4961 11.1025 40.6112 14.2148 44.4511 14.2148C48.291 14.2275 51.4061 11.1152 51.4061 7.26617Z" stroke="#FFC400" stroke-width="0.5" stroke-miterlimit="10"/>
<path d="M7.27163 11.1917L7.8438 7.83802L11.2005 7.26638L7.8438 6.70743L7.27163 3.3538L6.71218 6.70743L3.35547 7.26638L6.71218 7.83801L7.27163 11.1917Z" fill="#FFC400"/>
<path d="M14.2401 7.26642C14.2401 3.43006 11.125 0.31778 7.28508 0.31778C3.44521 0.317779 0.33008 3.43006 0.330079 7.26641C0.330079 11.1028 3.44521 14.215 7.28508 14.2151C11.125 14.2278 14.2401 11.1155 14.2401 7.26642Z" stroke="#FFC400" stroke-width="0.5" stroke-miterlimit="10"/>
</svg>
