<svg width="405" height="425" viewBox="0 0 405 425" fill="none" xmlns="http://www.w3.org/2000/svg">
<path d="M13.832 6.60715L12.7998 12.8005L6.60645 13.8327L12.7998 14.8884L13.832 21.0818L14.8643 14.8884L21.0576 13.8327L14.8643 12.8005L13.832 6.60715Z" fill="#FFC400"/>
<path d="M1 13.8323C1 20.9172 6.74763 26.6648 13.8325 26.6648C20.9173 26.6648 26.6649 20.9172 26.6649 13.8323C26.6649 6.7475 20.9173 0.999863 13.8325 0.999863C6.74763 0.999863 1 6.7475 1 13.8323Z" stroke="white" stroke-width="0.5" stroke-miterlimit="10"/>
<path d="M82.4288 6.60715L81.373 12.8005L75.1797 13.8327L81.373 14.8884L82.4288 21.0818L83.461 14.8884L89.6543 13.8327L83.461 12.8005L82.4288 6.60715Z" fill="#FFC400"/>
<path d="M69.5728 13.8323C69.5728 20.9172 75.3204 26.6648 82.4052 26.6648C89.4901 26.6648 95.2377 20.9172 95.2377 13.8323C95.2377 6.7475 89.4901 0.999863 82.4052 0.999863C75.3204 0.999863 69.5728 6.7475 69.5728 13.8323Z" stroke="white" stroke-width="0.5" stroke-miterlimit="10"/>
<path d="M48.1304 50.4297L47.0981 56.623L40.9048 57.6553L47.0981 58.6875L48.1304 64.8809L49.1626 58.6875L55.356 57.6553L49.1626 56.623L48.1304 50.4297Z" fill="#FFC400"/>
<path d="M48.1303 44.8224C55.2175 44.8224 60.9628 50.5677 60.9628 57.6548C60.9628 64.742 55.2175 70.4873 48.1303 70.4873C41.0431 70.4873 35.2979 64.742 35.2979 57.6548C35.2979 50.5677 41.0431 44.8224 48.1303 44.8224Z" stroke="white" stroke-width="0.5" stroke-miterlimit="10"/>
<path d="M116.703 50.4297L115.671 56.623L109.478 57.6553L115.671 58.6875L116.703 64.8809L117.759 58.6875L123.952 57.6553L117.759 56.623L116.703 50.4297Z" fill="#FFC400"/>
<path d="M103.871 57.6548C103.871 64.7397 109.618 70.4873 116.703 70.4873C123.788 70.4873 129.536 64.7397 129.536 57.6548C129.536 50.57 123.788 44.8224 116.703 44.8224C109.618 44.8224 103.871 50.57 103.871 57.6548Z" stroke="white" stroke-width="0.5" stroke-miterlimit="10"/>
<path d="M13.832 94.6748L12.7998 100.868L6.60645 101.9L12.7998 102.933L13.832 109.126L14.8643 102.933L21.0576 101.9L14.8643 100.868L13.832 94.6748Z" fill="#FFC400"/>
<path d="M1 101.9C1 108.985 6.74763 114.732 13.8325 114.732C20.9173 114.732 26.6649 108.985 26.6649 101.9C26.6649 94.8151 20.9173 89.0675 13.8325 89.0675C6.74763 89.0675 1 94.8151 1 101.9Z" stroke="white" stroke-width="0.5" stroke-miterlimit="10"/>
<path d="M82.4288 94.6748L81.373 100.868L75.1797 101.9L81.373 102.933L82.4288 109.126L83.461 102.933L89.6543 101.9L83.461 100.868L82.4288 94.6748Z" fill="#FFC400"/>
<path d="M69.5728 101.9C69.5728 108.985 75.3204 114.732 82.4052 114.732C89.4901 114.732 95.2377 108.985 95.2377 101.9C95.2377 94.8151 89.4901 89.0675 82.4052 89.0675C75.3204 89.0675 69.5728 94.8151 69.5728 101.9Z" stroke="white" stroke-width="0.5" stroke-miterlimit="10"/>
<path d="M151.001 94.6748L149.969 100.868L143.776 101.9L149.969 102.933L151.001 109.126L152.034 102.933L158.227 101.9L152.034 100.868L151.001 94.6748Z" fill="#FFC400"/>
<path d="M138.169 101.9C138.169 108.985 143.917 114.732 151.001 114.732C158.086 114.732 163.834 108.985 163.834 101.9C163.834 94.8151 158.086 89.0675 151.001 89.0675C143.917 89.0675 138.169 94.8151 138.169 101.9Z" stroke="white" stroke-width="0.5" stroke-miterlimit="10"/>
<path d="M48.1304 138.475L47.0981 144.668L40.9048 145.724L47.0981 146.756L48.1304 152.949L49.1626 146.756L55.356 145.724L49.1626 144.668L48.1304 138.475Z" fill="#FFC400"/>
<path d="M35.2979 145.723C35.2979 152.808 41.0455 158.556 48.1303 158.556C55.2152 158.556 60.9628 152.808 60.9628 145.723C60.9628 138.638 55.2152 132.891 48.1303 132.891C41.0455 132.867 35.2979 138.615 35.2979 145.723Z" stroke="white" stroke-width="0.5" stroke-miterlimit="10"/>
<path d="M116.703 138.475L115.671 144.668L109.478 145.724L115.671 146.756L116.703 152.949L117.759 146.756L123.952 145.724L117.759 144.668L116.703 138.475Z" fill="#FFC400"/>
<path d="M103.871 145.723C103.871 152.808 109.618 158.556 116.703 158.556C123.788 158.556 129.536 152.808 129.536 145.723C129.536 138.638 123.788 132.891 116.703 132.891C109.618 132.867 103.871 138.615 103.871 145.723Z" stroke="white" stroke-width="0.5" stroke-miterlimit="10"/>
<path d="M185.299 138.475L184.267 144.668L178.074 145.724L184.267 146.756L185.299 152.949L186.332 146.756L192.525 145.724L186.332 144.668L185.299 138.475Z" fill="#FFC400"/>
<path d="M172.467 145.723C172.467 152.808 178.214 158.556 185.299 158.556C192.384 158.556 198.132 152.808 198.132 145.723C198.132 138.638 192.384 132.891 185.299 132.891C178.214 132.891 172.467 138.615 172.467 145.723Z" stroke="white" stroke-width="0.5" stroke-miterlimit="10"/>
<path d="M13.832 182.72L12.7998 188.913L6.60645 189.969L12.7998 191.001L13.832 197.194L14.8643 191.001L21.0576 189.969L14.8643 188.913L13.832 182.72Z" fill="#FFC400"/>
<path d="M13.8325 177.136C20.9196 177.136 26.6649 182.881 26.6649 189.968C26.6649 197.055 20.9196 202.801 13.8325 202.801C6.74529 202.801 1 197.055 1 189.968C1 182.881 6.74529 177.136 13.8325 177.136Z" stroke="white" stroke-width="0.5" stroke-miterlimit="10"/>
<path d="M82.4288 182.72L81.373 188.913L75.1797 189.969L81.373 191.001L82.4288 197.194L83.461 191.001L89.6543 189.969L83.461 188.913L82.4288 182.72Z" fill="#FFC400"/>
<path d="M82.4287 177.136C89.5158 177.136 95.2611 182.881 95.2611 189.968C95.2611 197.055 89.5158 202.801 82.4287 202.801C75.3415 202.801 69.5962 197.055 69.5962 189.968C69.5962 182.881 75.3415 177.136 82.4287 177.136Z" stroke="white" stroke-width="0.5" stroke-miterlimit="10"/>
<path d="M151.001 182.72L149.969 188.913L143.776 189.969L149.969 191.001L151.001 197.194L152.034 191.001L158.227 189.969L152.034 188.913L151.001 182.72Z" fill="#FFC400"/>
<path d="M138.169 189.968C138.169 197.053 143.917 202.801 151.001 202.801C158.086 202.801 163.834 197.053 163.834 189.968C163.834 182.883 158.086 177.136 151.001 177.136C143.917 177.112 138.169 182.86 138.169 189.968Z" stroke="white" stroke-width="0.5" stroke-miterlimit="10"/>
<path d="M219.597 182.72L218.542 188.913L212.348 189.969L218.542 191.001L219.597 197.194L220.63 191.001L226.823 189.969L220.63 188.913L219.597 182.72Z" fill="#FFC400"/>
<path d="M219.597 177.136C226.685 177.136 232.43 182.881 232.43 189.968C232.43 197.055 226.685 202.801 219.597 202.801C212.51 202.801 206.765 197.055 206.765 189.968C206.765 182.881 212.51 177.136 219.597 177.136Z" stroke="white" stroke-width="0.5" stroke-miterlimit="10"/>
<path d="M48.1304 226.542L47.0981 232.735L40.9048 233.768L47.0981 234.823L48.1304 241.017L49.1626 234.823L55.356 233.768L49.1626 232.735L48.1304 226.542Z" fill="#FFC400"/>
<path d="M35.2979 233.767C35.2979 240.852 41.0455 246.6 48.1303 246.6C55.2152 246.6 60.9628 240.852 60.9628 233.767C60.9628 226.682 55.2152 220.935 48.1303 220.935C41.0455 220.935 35.2979 226.682 35.2979 233.767Z" stroke="white" stroke-width="0.5" stroke-miterlimit="10"/>
<path d="M116.703 226.542L115.671 232.735L109.478 233.768L115.671 234.823L116.703 241.017L117.759 234.823L123.952 233.768L117.759 232.735L116.703 226.542Z" fill="#FFC400"/>
<path d="M103.871 233.767C103.871 240.852 109.618 246.6 116.703 246.6C123.788 246.6 129.536 240.852 129.536 233.767C129.536 226.682 123.788 220.935 116.703 220.935C109.618 220.935 103.871 226.682 103.871 233.767Z" stroke="white" stroke-width="0.5" stroke-miterlimit="10"/>
<path d="M185.299 226.542L184.267 232.735L178.074 233.768L184.267 234.823L185.299 241.017L186.332 234.823L192.525 233.768L186.332 232.735L185.299 226.542Z" fill="#FFC400"/>
<path d="M172.467 233.767C172.467 240.852 178.214 246.6 185.299 246.6C192.384 246.6 198.132 240.852 198.132 233.767C198.132 226.682 192.384 220.935 185.299 220.935C178.214 220.935 172.467 226.682 172.467 233.767Z" stroke="white" stroke-width="0.5" stroke-miterlimit="10"/>
<path d="M253.872 226.542L252.84 232.735L246.647 233.768L252.84 234.823L253.872 241.017L254.928 234.823L261.121 233.768L254.928 232.735L253.872 226.542Z" fill="#FFC400"/>
<path d="M241.04 233.767C241.04 240.852 246.787 246.6 253.872 246.6C260.957 246.6 266.704 240.852 266.704 233.767C266.704 226.682 260.957 220.935 253.872 220.935C246.787 220.935 241.04 226.682 241.04 233.767Z" stroke="white" stroke-width="0.5" stroke-miterlimit="10"/>
<path d="M13.832 270.787L12.7998 276.98L6.60645 278.013L12.7998 279.068L13.832 285.262L14.8643 279.068L21.0576 278.013L14.8643 276.98L13.832 270.787Z" fill="#FFC400"/>
<path d="M1 278.012C1 285.097 6.74763 290.845 13.8325 290.845C20.9173 290.845 26.6649 285.097 26.6649 278.012C26.6649 270.927 20.9173 265.18 13.8325 265.18C6.74763 265.18 1 270.927 1 278.012Z" stroke="white" stroke-width="0.5" stroke-miterlimit="10"/>
<path d="M82.4288 270.787L81.373 276.98L75.1797 278.013L81.373 279.068L82.4288 285.262L83.461 279.068L89.6543 278.013L83.461 276.98L82.4288 270.787Z" fill="#FFC400"/>
<path d="M69.5728 278.012C69.5728 285.097 75.3204 290.845 82.4052 290.845C89.4901 290.845 95.2377 285.097 95.2377 278.012C95.2377 270.927 89.4901 265.18 82.4052 265.18C75.3204 265.18 69.5728 270.927 69.5728 278.012Z" stroke="white" stroke-width="0.5" stroke-miterlimit="10"/>
<path d="M151.001 270.787L149.969 276.98L143.776 278.013L149.969 279.068L151.001 285.262L152.034 279.068L158.227 278.013L152.034 276.98L151.001 270.787Z" fill="#FFC400"/>
<path d="M138.169 278.012C138.169 285.097 143.917 290.845 151.001 290.845C158.086 290.845 163.834 285.097 163.834 278.012C163.834 270.927 158.086 265.18 151.001 265.18C143.917 265.18 138.169 270.927 138.169 278.012Z" stroke="white" stroke-width="0.5" stroke-miterlimit="10"/>
<path d="M219.597 270.787L218.542 276.98L212.348 278.013L218.542 279.068L219.597 285.262L220.63 279.068L226.823 278.013L220.63 276.98L219.597 270.787Z" fill="#FFC400"/>
<path d="M206.741 278.012C206.741 285.097 212.489 290.845 219.574 290.845C226.659 290.845 232.406 285.097 232.406 278.012C232.406 270.927 226.659 265.18 219.574 265.18C212.489 265.18 206.741 270.927 206.741 278.012Z" stroke="white" stroke-width="0.5" stroke-miterlimit="10"/>
<path d="M288.17 270.787L287.138 276.98L280.945 278.013L287.138 279.068L288.17 285.262L289.202 279.068L295.396 278.013L289.202 276.98L288.17 270.787Z" fill="#FFC400"/>
<path d="M275.338 278.012C275.338 285.097 281.085 290.845 288.17 290.845C295.255 290.845 301.003 285.097 301.003 278.012C301.003 270.927 295.255 265.18 288.17 265.18C281.085 265.18 275.338 270.927 275.338 278.012Z" stroke="white" stroke-width="0.5" stroke-miterlimit="10"/>
<path d="M48.1304 314.61L47.0981 320.804L40.9048 321.836L47.0981 322.868L48.1304 329.062L49.1626 322.868L55.356 321.836L49.1626 320.804L48.1304 314.61Z" fill="#FFC400"/>
<path d="M48.1303 309.003C55.2175 309.003 60.9628 314.748 60.9628 321.836C60.9628 328.923 55.2175 334.668 48.1303 334.668C41.0431 334.668 35.2979 328.923 35.2979 321.836C35.2979 314.748 41.0431 309.003 48.1303 309.003Z" stroke="white" stroke-width="0.5" stroke-miterlimit="10"/>
<path d="M116.703 314.61L115.671 320.804L109.478 321.836L115.671 322.868L116.703 329.062L117.759 322.868L123.952 321.836L117.759 320.804L116.703 314.61Z" fill="#FFC400"/>
<path d="M103.871 321.836C103.871 328.92 109.618 334.668 116.703 334.668C123.788 334.668 129.536 328.92 129.536 321.836C129.536 314.751 123.788 309.003 116.703 309.003C109.618 309.003 103.871 314.751 103.871 321.836Z" stroke="white" stroke-width="0.5" stroke-miterlimit="10"/>
<path d="M185.299 314.61L184.267 320.804L178.074 321.836L184.267 322.868L185.299 329.062L186.332 322.868L192.525 321.836L186.332 320.804L185.299 314.61Z" fill="#FFC400"/>
<path d="M185.299 309.003C192.386 309.003 198.132 314.748 198.132 321.836C198.132 328.923 192.386 334.668 185.299 334.668C178.212 334.668 172.467 328.923 172.467 321.836C172.467 314.748 178.212 309.003 185.299 309.003Z" stroke="white" stroke-width="0.5" stroke-miterlimit="10"/>
<path d="M253.872 314.61L252.84 320.804L246.647 321.836L252.84 322.868L253.872 329.062L254.928 322.868L261.121 321.836L254.928 320.804L253.872 314.61Z" fill="#FFC400"/>
<path d="M241.04 321.836C241.04 328.92 246.787 334.668 253.872 334.668C260.957 334.668 266.704 328.92 266.704 321.836C266.704 314.751 260.957 309.003 253.872 309.003C246.787 309.003 241.04 314.751 241.04 321.836Z" stroke="white" stroke-width="0.5" stroke-miterlimit="10"/>
<path d="M322.469 314.61L321.436 320.804L315.219 321.836L321.436 322.868L322.469 329.062L323.501 322.868L329.694 321.836L323.501 320.804L322.469 314.61Z" fill="#FFC400"/>
<path d="M322.468 309.003C329.556 309.003 335.301 314.748 335.301 321.836C335.301 328.923 329.556 334.668 322.468 334.668C315.381 334.668 309.636 328.923 309.636 321.836C309.636 314.748 315.381 309.003 322.468 309.003Z" stroke="white" stroke-width="0.5" stroke-miterlimit="10"/>
<path d="M13.832 358.854L12.7998 365.048L6.60645 366.08L12.7998 367.112L13.832 373.306L14.8643 367.112L21.0576 366.08L14.8643 365.048L13.832 358.854Z" fill="#FFC400"/>
<path d="M1 366.08C1 373.164 6.74763 378.912 13.8325 378.912C20.9173 378.912 26.6649 373.164 26.6649 366.08C26.6649 358.995 20.9173 353.247 13.8325 353.247C6.74763 353.247 1 358.995 1 366.08Z" stroke="white" stroke-width="0.5" stroke-miterlimit="10"/>
<path d="M82.4288 358.854L81.373 365.048L75.1797 366.08L81.373 367.112L82.4288 373.306L83.461 367.112L89.6543 366.08L83.461 365.048L82.4288 358.854Z" fill="#FFC400"/>
<path d="M69.5728 366.08C69.5728 373.164 75.3204 378.912 82.4052 378.912C89.4901 378.912 95.2377 373.164 95.2377 366.08C95.2377 358.995 89.4901 353.247 82.4052 353.247C75.3204 353.247 69.5728 358.995 69.5728 366.08Z" stroke="white" stroke-width="0.5" stroke-miterlimit="10"/>
<path d="M151.001 358.854L149.969 365.048L143.776 366.08L149.969 367.112L151.001 373.306L152.034 367.112L158.227 366.08L152.034 365.048L151.001 358.854Z" fill="#FFC400"/>
<path d="M138.169 366.08C138.169 373.164 143.917 378.912 151.001 378.912C158.086 378.912 163.834 373.164 163.834 366.08C163.834 358.995 158.086 353.247 151.001 353.247C143.917 353.247 138.169 358.995 138.169 366.08Z" stroke="white" stroke-width="0.5" stroke-miterlimit="10"/>
<path d="M219.597 358.854L218.542 365.048L212.348 366.08L218.542 367.112L219.597 373.306L220.63 367.112L226.823 366.08L220.63 365.048L219.597 358.854Z" fill="#FFC400"/>
<path d="M206.741 366.08C206.741 373.164 212.489 378.912 219.574 378.912C226.659 378.912 232.406 373.164 232.406 366.08C232.406 358.995 226.659 353.247 219.574 353.247C212.489 353.247 206.741 358.995 206.741 366.08Z" stroke="white" stroke-width="0.5" stroke-miterlimit="10"/>
<path d="M288.17 358.854L287.138 365.048L280.945 366.08L287.138 367.112L288.17 373.306L289.202 367.112L295.396 366.08L289.202 365.048L288.17 358.854Z" fill="#FFC400"/>
<path d="M275.338 366.08C275.338 373.164 281.085 378.912 288.17 378.912C295.255 378.912 301.003 373.164 301.003 366.08C301.003 358.995 295.255 353.247 288.17 353.247C281.085 353.247 275.338 358.995 275.338 366.08Z" stroke="white" stroke-width="0.5" stroke-miterlimit="10"/>
<path d="M356.767 358.854L355.711 365.048L349.518 366.08L355.711 367.112L356.767 373.306L357.799 367.112L363.992 366.08L357.799 365.048L356.767 358.854Z" fill="#FFC400"/>
<path d="M343.911 366.08C343.911 373.164 349.658 378.912 356.743 378.912C363.828 378.912 369.576 373.164 369.576 366.08C369.576 358.995 363.828 353.247 356.743 353.247C349.658 353.247 343.911 358.995 343.911 366.08Z" stroke="white" stroke-width="0.5" stroke-miterlimit="10"/>
<path d="M48.1304 402.653L47.0981 408.847L40.9048 409.902L47.0981 410.935L48.1304 417.128L49.1626 410.935L55.356 409.902L49.1626 408.847L48.1304 402.653Z" fill="#FFC400"/>
<path d="M60.8553 408.146C61.8128 415.167 56.8966 421.636 49.8746 422.594C42.8526 423.551 36.384 418.635 35.4265 411.613C34.4691 404.591 39.3853 398.122 46.4073 397.165C53.4292 396.207 59.8979 401.124 60.8553 408.146Z" stroke="white" stroke-width="0.5" stroke-miterlimit="10"/>
<path d="M116.703 402.654L115.671 408.847L109.478 409.903L115.671 410.935L116.703 417.129L117.759 410.935L123.952 409.903L117.759 408.847L116.703 402.654Z" fill="#FFC400"/>
<path d="M103.871 409.903C103.871 416.987 109.618 422.735 116.703 422.735C123.788 422.735 129.536 416.987 129.536 409.903C129.536 402.818 123.788 397.07 116.703 397.07C109.618 397.047 103.871 402.794 103.871 409.903Z" stroke="white" stroke-width="0.5" stroke-miterlimit="10"/>
<path d="M185.3 402.653L184.267 408.847L178.074 409.902L184.267 410.935L185.3 417.128L186.332 410.935L192.525 409.902L186.332 408.847L185.3 402.653Z" fill="#FFC400"/>
<path d="M198.033 408.543C198.79 415.589 193.691 421.916 186.644 422.673C179.597 423.429 173.271 418.331 172.514 411.284C171.757 404.237 176.856 397.911 183.903 397.154C190.95 396.397 197.276 401.496 198.033 408.543Z" stroke="white" stroke-width="0.5" stroke-miterlimit="10"/>
<path d="M253.872 402.654L252.84 408.847L246.647 409.903L252.84 410.935L253.872 417.129L254.928 410.935L261.121 409.903L254.928 408.847L253.872 402.654Z" fill="#FFC400"/>
<path d="M241.04 409.903C241.04 416.987 246.787 422.735 253.872 422.735C260.957 422.735 266.704 416.987 266.704 409.903C266.704 402.818 260.957 397.07 253.872 397.07C246.787 397.047 241.04 402.794 241.04 409.903Z" stroke="white" stroke-width="0.5" stroke-miterlimit="10"/>
<path d="M322.469 402.653L321.436 408.847L315.219 409.902L321.436 410.935L322.469 417.128L323.501 410.935L329.694 409.902L323.501 408.847L322.469 402.653Z" fill="#FFC400"/>
<path d="M335.233 408.529C335.988 415.576 330.888 421.901 323.841 422.657C316.794 423.412 310.469 418.312 309.714 411.265C308.958 404.218 314.058 397.893 321.105 397.138C328.152 396.382 334.477 401.483 335.233 408.529Z" stroke="white" stroke-width="0.5" stroke-miterlimit="10"/>
<path d="M391.041 402.654L390.009 408.847L383.816 409.903L390.009 410.935L391.041 417.129L392.097 410.935L398.29 409.903L392.097 408.847L391.041 402.654Z" fill="#FFC400"/>
<path d="M378.209 409.903C378.209 416.987 383.956 422.735 391.041 422.735C398.126 422.735 403.874 416.987 403.874 409.903C403.874 402.818 398.126 397.07 391.041 397.07C383.956 397.047 378.209 402.794 378.209 409.903Z" stroke="white" stroke-width="0.5" stroke-miterlimit="10"/>
</svg>
