<svg width="576" height="535" viewBox="0 0 576 535" fill="none" xmlns="http://www.w3.org/2000/svg">
<g opacity="0.28">
<path d="M358.256 136.862C361.212 133.709 364.365 130.699 367.724 127.824C416.767 85.947 491.196 91.8949 532.911 141.081C554.884 166.996 563.618 199.628 559.838 230.828C556.085 261.812 558.342 293.235 567.542 323.055C584.346 377.5 568.124 439.11 521.607 477.852C488.795 505.182 447.518 515.617 408.311 510.144C372.704 505.173 336.435 508.98 302.691 521.377C254.696 539.006 182.919 546.055 121.909 472.8C63.3884 402.536 72.9104 298.126 143.174 239.606C168.121 218.833 197.359 206.633 227.331 202.683C277.225 196.126 323.84 173.579 358.256 136.862Z" stroke="url(#paint0_linear_7601_612)" stroke-width="3" stroke-miterlimit="10"/>
<path d="M341.945 117.281C344.901 114.128 348.054 111.109 351.413 108.242C400.456 66.3655 474.885 72.3133 516.6 121.5C538.573 147.414 547.307 180.056 543.527 211.255C539.774 242.24 542.031 273.663 551.23 303.483C568.035 357.927 551.813 419.538 505.296 458.28C472.484 485.609 431.207 496.045 392 490.572C356.393 485.6 320.124 489.407 286.38 501.805C238.385 519.433 166.608 526.483 105.598 453.227C47.0774 382.964 56.5993 278.554 126.863 220.034C151.81 199.261 181.048 187.061 211.02 183.11C260.914 176.535 307.529 153.998 341.945 117.281Z" stroke="url(#paint1_linear_7601_612)" stroke-width="3" stroke-miterlimit="10"/>
<path d="M325.632 97.6996C328.588 94.5465 331.741 91.5367 335.1 88.6613C384.143 46.7844 458.572 52.7323 500.288 101.919C522.261 127.833 530.995 160.475 527.214 191.665C523.461 222.65 525.718 254.073 534.918 283.893C551.722 338.337 535.5 399.948 488.983 438.69C456.171 466.019 414.895 476.455 375.687 470.982C340.081 466.01 303.811 469.817 270.068 482.215C222.073 499.843 150.295 506.893 89.2851 433.637C30.7649 363.374 40.2868 258.964 110.55 200.444C135.497 179.671 164.735 167.471 194.707 163.52C244.601 156.954 291.217 134.408 325.632 97.6996Z" stroke="url(#paint2_linear_7601_612)" stroke-width="3" stroke-miterlimit="10"/>
<path d="M309.321 78.109C312.277 74.9559 315.43 71.9461 318.789 69.0707C367.832 27.1938 442.261 33.1417 483.977 82.328C505.95 108.242 514.683 140.884 510.903 172.074C507.15 203.059 509.407 234.482 518.607 264.302C535.411 318.747 519.189 380.357 472.672 419.099C439.86 446.429 398.584 456.864 359.376 451.391C323.77 446.42 287.5 450.227 253.757 462.624C205.762 480.253 133.984 487.302 72.974 414.047C14.4538 343.783 23.9758 239.373 94.2394 180.853C119.186 160.08 148.424 147.88 178.396 143.93C228.29 137.364 274.906 114.826 309.321 78.109Z" stroke="url(#paint3_linear_7601_612)" stroke-width="3" stroke-miterlimit="10"/>
<path d="M293.008 58.5277C295.964 55.3746 299.117 52.3649 302.476 49.4895C351.519 7.61255 425.948 13.5604 467.664 62.7467C489.637 88.6611 498.371 121.294 494.59 152.493C490.837 183.478 493.094 214.901 502.294 244.73C519.098 299.174 502.876 360.785 456.359 399.527C423.547 426.856 382.271 437.292 343.063 431.819C307.457 426.847 271.187 430.654 237.444 443.052C189.449 460.68 117.671 467.73 56.661 394.474C-1.8592 324.211 7.66275 219.801 77.9264 161.281C102.873 140.508 132.111 128.308 162.083 124.357C211.977 117.782 258.593 95.236 293.008 58.5277Z" stroke="url(#paint4_linear_7601_612)" stroke-width="3" stroke-miterlimit="10"/>
<path d="M276.697 38.9374C279.653 35.7843 282.806 32.7745 286.165 29.8991C335.208 -11.9778 409.637 -6.02993 451.353 43.1564C473.326 69.0708 482.059 101.703 478.279 132.903C474.526 163.887 476.783 195.311 485.983 225.131C502.787 279.584 486.565 341.203 440.048 379.936C407.236 407.266 365.96 417.702 326.752 412.229C291.146 407.257 254.876 411.064 221.133 423.461C173.138 441.09 101.36 448.14 40.35 374.884C-18.1702 304.621 -8.64822 200.21 61.6154 141.69C86.5624 120.918 115.8 108.717 145.772 104.767C195.666 98.1921 242.282 75.6547 276.697 38.9374Z" stroke="url(#paint5_linear_7601_612)" stroke-width="3" stroke-miterlimit="10"/>
</g>
<path d="M359.874 238.936L358.199 244.597L352.538 246.281L358.199 247.956L359.874 253.626L361.558 247.956L367.219 246.281L361.558 244.597L359.874 238.936Z" fill="url(#paint6_linear_7601_612)"/>
<defs>
<linearGradient id="paint0_linear_7601_612" x1="491.861" y1="504.391" x2="217.982" y2="175.565" gradientUnits="userSpaceOnUse">
<stop stop-color="#378CD7"/>
<stop offset="1" stop-color="#F25621"/>
</linearGradient>
<linearGradient id="paint1_linear_7601_612" x1="475.55" y1="484.805" x2="201.671" y2="155.979" gradientUnits="userSpaceOnUse">
<stop stop-color="#78788D"/>
<stop offset="1" stop-color="white"/>
</linearGradient>
<linearGradient id="paint2_linear_7601_612" x1="459.238" y1="465.22" x2="185.359" y2="136.394" gradientUnits="userSpaceOnUse">
<stop stop-color="#378CD7"/>
<stop offset="1" stop-color="#F25621"/>
</linearGradient>
<linearGradient id="paint3_linear_7601_612" x1="442.927" y1="445.634" x2="169.048" y2="116.808" gradientUnits="userSpaceOnUse">
<stop stop-color="#0000FF"/>
<stop offset="1" stop-color="white"/>
</linearGradient>
<linearGradient id="paint4_linear_7601_612" x1="426.614" y1="426.049" x2="152.735" y2="97.2229" gradientUnits="userSpaceOnUse">
<stop stop-color="#0000FF"/>
<stop offset="1" stop-color="white"/>
</linearGradient>
<linearGradient id="paint5_linear_7601_612" x1="410.303" y1="406.463" x2="136.424" y2="77.6375" gradientUnits="userSpaceOnUse">
<stop stop-color="#0000FF"/>
<stop offset="1" stop-color="white"/>
</linearGradient>
<linearGradient id="paint6_linear_7601_612" x1="367.221" y1="246.279" x2="352.534" y2="246.279" gradientUnits="userSpaceOnUse">
<stop stop-color="#00D4FF"/>
<stop offset="1" stop-color="#FF4100"/>
</linearGradient>
</defs>
</svg>
