<svg width="138" height="41" viewBox="0 0 138 41" fill="none" xmlns="http://www.w3.org/2000/svg">
<path d="M36.956 20.3296V0.00103932H40.653V20.3296C40.6527 24.503 39.3613 28.574 36.956 31.9844C35.9032 33.471 34.6607 34.8137 33.26 35.9783C32.1215 36.9247 30.8824 37.743 29.565 38.4184C28.3847 39.0286 27.1461 39.5189 25.868 39.8819C24.6597 40.2258 23.422 40.4558 22.1709 40.569C21.5668 40.6271 20.9472 40.652 20.3275 40.652H7.39305V33.2662H11.0891V29.5692H7.39305V20.3317C7.39727 16.9565 8.72416 13.7173 11.0891 11.3091C12.1578 10.2155 13.4089 9.31641 14.7861 8.65206C15.9554 8.09566 17.2011 7.7168 18.4822 7.528C19.0927 7.43756 19.7093 7.3935 20.3265 7.39618H29.564V3.69809H20.3265C19.7102 3.69489 19.0942 3.72955 18.4822 3.80188C17.221 3.93925 15.9804 4.22493 14.7861 4.65297C11.5501 5.80733 8.74879 7.93171 6.76431 10.7364C4.77983 13.5412 3.70874 16.8897 3.69706 20.3255V40.6479H0V20.3296C0.000266171 16.157 1.29169 12.0866 3.69706 8.67697C4.74738 7.18838 5.98979 5.84511 7.39204 4.68203C8.53065 3.73533 9.77014 2.91702 11.0881 2.2419C12.2675 1.62947 13.5062 1.13877 14.7851 0.777399C15.9927 0.431066 17.2301 0.198596 18.4811 0.0830331C19.0841 0.0332132 19.7048 0 20.3255 0H33.2579V7.3941H29.5629V11.0912H33.2579V20.3286C33.2455 22.7723 32.5458 25.1632 31.2388 27.228C29.9318 29.2928 28.0703 30.9483 25.8669 32.0051C24.6995 32.5692 23.4528 32.9514 22.1698 33.1385C21.5591 33.2247 20.9432 33.2688 20.3265 33.2704H11.0891V36.9684H20.3265C20.9424 36.967 21.5577 36.9324 22.1698 36.8647C23.4314 36.7269 24.6723 36.4409 25.8669 36.0125C27.1718 35.545 28.4136 34.9175 29.564 34.1443C30.9567 33.2032 32.202 32.0604 33.2589 30.7534C35.6489 27.8086 36.9539 24.1316 36.955 20.339L36.956 20.3296ZM25.868 11.0922H20.3275C19.7079 11.0924 19.09 11.1557 18.4832 11.2811C16.4023 11.7172 14.5335 12.853 13.1883 14.4995C11.8431 16.1459 11.1026 18.2035 11.0901 20.3296V29.5671H20.3275C22.3302 29.5656 24.2769 28.9058 25.868 27.6895C27.0114 26.8317 27.9403 25.7205 28.5818 24.4431C29.2233 23.1657 29.5598 21.757 29.565 20.3276V11.0901L25.868 11.0922Z" fill="black"/>
<path d="M36.956 20.3296V0.00103932H40.653V20.3296C40.6527 24.503 39.3613 28.574 36.956 31.9844C35.9032 33.471 34.6607 34.8137 33.26 35.9783C32.1215 36.9247 30.8824 37.743 29.565 38.4184C28.3847 39.0286 27.1461 39.5189 25.868 39.8819C24.6597 40.2258 23.422 40.4558 22.1709 40.569C21.5668 40.6271 20.9472 40.652 20.3275 40.652H7.39305V33.2662H11.0891V29.5692H7.39305V20.3317C7.39727 16.9565 8.72416 13.7173 11.0891 11.3091C12.1578 10.2155 13.4089 9.31641 14.7861 8.65206C15.9554 8.09566 17.2011 7.7168 18.4822 7.528C19.0927 7.43756 19.7093 7.3935 20.3265 7.39618H29.564V3.69809H20.3265C19.7102 3.69489 19.0942 3.72955 18.4822 3.80188C17.221 3.93925 15.9804 4.22493 14.7861 4.65297C11.5501 5.80733 8.74879 7.93171 6.76431 10.7364C4.77983 13.5412 3.70874 16.8897 3.69706 20.3255V40.6479H0V20.3296C0.000266171 16.157 1.29169 12.0866 3.69706 8.67697C4.74738 7.18838 5.98979 5.84511 7.39204 4.68203C8.53065 3.73533 9.77014 2.91702 11.0881 2.2419C12.2675 1.62947 13.5062 1.13877 14.7851 0.777399C15.9927 0.431066 17.2301 0.198596 18.4811 0.0830331C19.0841 0.0332132 19.7048 0 20.3255 0H33.2579V7.3941H29.5629V11.0912H33.2579V20.3286C33.2455 22.7723 32.5458 25.1632 31.2388 27.228C29.9318 29.2928 28.0703 30.9483 25.8669 32.0051C24.6995 32.5692 23.4528 32.9514 22.1698 33.1385C21.5591 33.2247 20.9432 33.2688 20.3265 33.2704H11.0891V36.9684H20.3265C20.9424 36.967 21.5577 36.9324 22.1698 36.8647C23.4314 36.7269 24.6723 36.4409 25.8669 36.0125C27.1718 35.545 28.4136 34.9175 29.564 34.1443C30.9567 33.2032 32.202 32.0604 33.2589 30.7534C35.6489 27.8086 36.9539 24.1316 36.955 20.339L36.956 20.3296ZM25.868 11.0922H20.3275C19.7079 11.0924 19.09 11.1557 18.4832 11.2811C16.4023 11.7172 14.5335 12.853 13.1883 14.4995C11.8431 16.1459 11.1026 18.2035 11.0901 20.3296V29.5671H20.3275C22.3302 29.5656 24.2769 28.9058 25.868 27.6895C27.0114 26.8317 27.9403 25.7205 28.5818 24.4431C29.2233 23.1657 29.5598 21.757 29.565 20.3276V11.0901L25.868 11.0922Z" fill="black" fill-opacity="0.2"/>
<path d="M36.956 20.3296V0.00103932H40.653V20.3296C40.6527 24.503 39.3613 28.574 36.956 31.9844C35.9032 33.471 34.6607 34.8137 33.26 35.9783C32.1215 36.9247 30.8824 37.743 29.565 38.4184C28.3847 39.0286 27.1461 39.5189 25.868 39.8819C24.6597 40.2258 23.422 40.4558 22.1709 40.569C21.5668 40.6271 20.9472 40.652 20.3275 40.652H7.39305V33.2662H11.0891V29.5692H7.39305V20.3317C7.39727 16.9565 8.72416 13.7173 11.0891 11.3091C12.1578 10.2155 13.4089 9.31641 14.7861 8.65206C15.9554 8.09566 17.2011 7.7168 18.4822 7.528C19.0927 7.43756 19.7093 7.3935 20.3265 7.39618H29.564V3.69809H20.3265C19.7102 3.69489 19.0942 3.72955 18.4822 3.80188C17.221 3.93925 15.9804 4.22493 14.7861 4.65297C11.5501 5.80733 8.74879 7.93171 6.76431 10.7364C4.77983 13.5412 3.70874 16.8897 3.69706 20.3255V40.6479H0V20.3296C0.000266171 16.157 1.29169 12.0866 3.69706 8.67697C4.74738 7.18838 5.98979 5.84511 7.39204 4.68203C8.53065 3.73533 9.77014 2.91702 11.0881 2.2419C12.2675 1.62947 13.5062 1.13877 14.7851 0.777399C15.9927 0.431066 17.2301 0.198596 18.4811 0.0830331C19.0841 0.0332132 19.7048 0 20.3255 0H33.2579V7.3941H29.5629V11.0912H33.2579V20.3286C33.2455 22.7723 32.5458 25.1632 31.2388 27.228C29.9318 29.2928 28.0703 30.9483 25.8669 32.0051C24.6995 32.5692 23.4528 32.9514 22.1698 33.1385C21.5591 33.2247 20.9432 33.2688 20.3265 33.2704H11.0891V36.9684H20.3265C20.9424 36.967 21.5577 36.9324 22.1698 36.8647C23.4314 36.7269 24.6723 36.4409 25.8669 36.0125C27.1718 35.545 28.4136 34.9175 29.564 34.1443C30.9567 33.2032 32.202 32.0604 33.2589 30.7534C35.6489 27.8086 36.9539 24.1316 36.955 20.339L36.956 20.3296ZM25.868 11.0922H20.3275C19.7079 11.0924 19.09 11.1557 18.4832 11.2811C16.4023 11.7172 14.5335 12.853 13.1883 14.4995C11.8431 16.1459 11.1026 18.2035 11.0901 20.3296V29.5671H20.3275C22.3302 29.5656 24.2769 28.9058 25.868 27.6895C27.0114 26.8317 27.9403 25.7205 28.5818 24.4431C29.2233 23.1657 29.5598 21.757 29.565 20.3276V11.0901L25.868 11.0922Z" fill="black"/>
<path d="M36.956 20.3296V0.00103932H40.653V20.3296C40.6527 24.503 39.3613 28.574 36.956 31.9844C35.9032 33.471 34.6607 34.8137 33.26 35.9783C32.1215 36.9247 30.8824 37.743 29.565 38.4184C28.3847 39.0286 27.1461 39.5189 25.868 39.8819C24.6597 40.2258 23.422 40.4558 22.1709 40.569C21.5668 40.6271 20.9472 40.652 20.3275 40.652H7.39305V33.2662H11.0891V29.5692H7.39305V20.3317C7.39727 16.9565 8.72416 13.7173 11.0891 11.3091C12.1578 10.2155 13.4089 9.31641 14.7861 8.65206C15.9554 8.09566 17.2011 7.7168 18.4822 7.528C19.0927 7.43756 19.7093 7.3935 20.3265 7.39618H29.564V3.69809H20.3265C19.7102 3.69489 19.0942 3.72955 18.4822 3.80188C17.221 3.93925 15.9804 4.22493 14.7861 4.65297C11.5501 5.80733 8.74879 7.93171 6.76431 10.7364C4.77983 13.5412 3.70874 16.8897 3.69706 20.3255V40.6479H0V20.3296C0.000266171 16.157 1.29169 12.0866 3.69706 8.67697C4.74738 7.18838 5.98979 5.84511 7.39204 4.68203C8.53065 3.73533 9.77014 2.91702 11.0881 2.2419C12.2675 1.62947 13.5062 1.13877 14.7851 0.777399C15.9927 0.431066 17.2301 0.198596 18.4811 0.0830331C19.0841 0.0332132 19.7048 0 20.3255 0H33.2579V7.3941H29.5629V11.0912H33.2579V20.3286C33.2455 22.7723 32.5458 25.1632 31.2388 27.228C29.9318 29.2928 28.0703 30.9483 25.8669 32.0051C24.6995 32.5692 23.4528 32.9514 22.1698 33.1385C21.5591 33.2247 20.9432 33.2688 20.3265 33.2704H11.0891V36.9684H20.3265C20.9424 36.967 21.5577 36.9324 22.1698 36.8647C23.4314 36.7269 24.6723 36.4409 25.8669 36.0125C27.1718 35.545 28.4136 34.9175 29.564 34.1443C30.9567 33.2032 32.202 32.0604 33.2589 30.7534C35.6489 27.8086 36.9539 24.1316 36.955 20.339L36.956 20.3296ZM25.868 11.0922H20.3275C19.7079 11.0924 19.09 11.1557 18.4832 11.2811C16.4023 11.7172 14.5335 12.853 13.1883 14.4995C11.8431 16.1459 11.1026 18.2035 11.0901 20.3296V29.5671H20.3275C22.3302 29.5656 24.2769 28.9058 25.868 27.6895C27.0114 26.8317 27.9403 25.7205 28.5818 24.4431C29.2233 23.1657 29.5598 21.757 29.565 20.3276V11.0901L25.868 11.0922Z" fill="black" fill-opacity="0.2"/>
<path d="M46.4254 15.3567V1.86673H52.1444C52.7651 1.86673 53.3351 1.99339 53.8544 2.24673C54.3737 2.50006 54.8234 2.84206 55.2034 3.27273C55.5961 3.70339 55.9001 4.18473 56.1154 4.71673C56.3307 5.24873 56.4384 5.7934 56.4384 6.35073C56.4384 7.11073 56.2611 7.83273 55.9064 8.51673C55.5517 9.20073 55.0641 9.75806 54.4434 10.1887C53.8227 10.6194 53.0881 10.8347 52.2394 10.8347H49.0474V15.3567H46.4254ZM49.0474 8.53573H52.0874C52.4041 8.53573 52.6891 8.44706 52.9424 8.26973C53.1957 8.09239 53.3984 7.83906 53.5504 7.50973C53.7024 7.16773 53.7784 6.7814 53.7784 6.35073C53.7784 5.88206 53.6897 5.48306 53.5124 5.15373C53.3477 4.8244 53.1261 4.5774 52.8474 4.41273C52.5814 4.24806 52.2901 4.16573 51.9734 4.16573H49.0474V8.53573Z" fill="#FFB340"/>
<path d="M69.6063 1.86673V15.3567H67.0033V9.59973H60.8853V15.3567H58.2633V1.86673H60.8853V7.31973H67.0033V1.86673H69.6063Z" fill="#FFB340"/>
<path d="M72.4205 15.3567V1.86673H75.0425V13.0577H81.9205V15.3567H72.4205Z" fill="#FFB340"/>
<path d="M88.9764 15.4517C87.9884 15.4517 87.089 15.2617 86.2784 14.8817C85.4804 14.5017 84.79 13.9887 84.2074 13.3427C83.6374 12.6841 83.194 11.9494 82.8774 11.1387C82.5607 10.3154 82.4024 9.47306 82.4024 8.61173C82.4024 7.71239 82.567 6.8574 82.8964 6.04673C83.2384 5.2234 83.7007 4.49506 84.2834 3.86173C84.8787 3.21573 85.5754 2.70906 86.3734 2.34173C87.184 1.96173 88.0707 1.77173 89.0334 1.77173C90.0087 1.77173 90.8954 1.96806 91.6934 2.36073C92.504 2.75339 93.1944 3.27906 93.7644 3.93773C94.3344 4.5964 94.7777 5.33106 95.0944 6.14173C95.411 6.9524 95.5694 7.78839 95.5694 8.64973C95.5694 9.5364 95.4047 10.3914 95.0754 11.2147C94.746 12.0254 94.2837 12.7537 93.6884 13.3997C93.1057 14.0331 92.409 14.5334 91.5984 14.9007C90.8004 15.2681 89.9264 15.4517 88.9764 15.4517ZM85.0624 8.61173C85.0624 9.1944 85.151 9.75806 85.3284 10.3027C85.5057 10.8474 85.759 11.3351 86.0884 11.7657C86.4304 12.1837 86.842 12.5194 87.3234 12.7727C87.8174 13.0134 88.3747 13.1337 88.9954 13.1337C89.6287 13.1337 90.1924 13.0071 90.6864 12.7537C91.1804 12.4877 91.592 12.1394 91.9214 11.7087C92.2507 11.2654 92.4977 10.7777 92.6624 10.2457C92.8397 9.70106 92.9284 9.15639 92.9284 8.61173C92.9284 8.02906 92.8334 7.47173 92.6434 6.93973C92.466 6.39506 92.2064 5.91373 91.8644 5.49573C91.535 5.06506 91.1234 4.7294 90.6294 4.48873C90.148 4.2354 89.6034 4.10873 88.9954 4.10873C88.3494 4.10873 87.7794 4.24173 87.2854 4.50773C86.804 4.76106 86.3987 5.10306 86.0694 5.53373C85.74 5.9644 85.4867 6.44573 85.3094 6.97773C85.1447 7.50973 85.0624 8.05439 85.0624 8.61173Z" fill="#FFB340"/>
<path d="M98.3373 1.86673L101.681 6.84473L105.006 1.86673H107.856L103.182 8.70673L107.704 15.3567H104.854L101.681 10.5687L98.4893 15.3567H95.6203L100.142 8.70673L95.4683 1.86673H98.3373Z" fill="#FFB340"/>
<path d="M57.2934 33.8797C57.2934 34.6397 57.0971 35.2794 56.7044 35.7987C56.3117 36.3054 55.7797 36.6917 55.1084 36.9577C54.4497 37.2237 53.7277 37.3567 52.9424 37.3567H46.4254V23.8667H53.6454C54.2787 23.8667 54.8234 24.0377 55.2794 24.3797C55.7481 24.7091 56.1027 25.1397 56.3434 25.6717C56.5967 26.1911 56.7234 26.7357 56.7234 27.3057C56.7234 27.9517 56.5587 28.5661 56.2294 29.1487C55.9001 29.7314 55.4187 30.1621 54.7854 30.4407C55.5581 30.6687 56.1661 31.0804 56.6094 31.6757C57.0654 32.2711 57.2934 33.0057 57.2934 33.8797ZM54.6524 33.3857C54.6524 33.0437 54.5827 32.7397 54.4434 32.4737C54.3041 32.1951 54.1141 31.9797 53.8734 31.8277C53.6454 31.6631 53.3794 31.5807 53.0754 31.5807H49.0474V35.1337H52.9424C53.2591 35.1337 53.5441 35.0577 53.7974 34.9057C54.0634 34.7411 54.2724 34.5257 54.4244 34.2597C54.5764 33.9937 54.6524 33.7024 54.6524 33.3857ZM49.0474 26.1087V29.5097H52.5434C52.8347 29.5097 53.1007 29.4401 53.3414 29.3007C53.5821 29.1614 53.7721 28.9651 53.9114 28.7117C54.0634 28.4584 54.1394 28.1544 54.1394 27.7997C54.1394 27.4577 54.0697 27.1601 53.9304 26.9067C53.8037 26.6534 53.6264 26.4571 53.3984 26.3177C53.1831 26.1784 52.9361 26.1087 52.6574 26.1087H49.0474Z" fill="black"/>
<path d="M65.0585 37.4517C63.9818 37.4517 63.0635 37.2744 62.3035 36.9197C61.5561 36.5524 60.9481 36.0521 60.4795 35.4187C60.0235 34.7854 59.6878 34.0697 59.4725 33.2717C59.2571 32.4611 59.1495 31.6187 59.1495 30.7447V23.8667H61.7715V30.7447C61.7715 31.3021 61.8221 31.8467 61.9235 32.3787C62.0375 32.8981 62.2211 33.3667 62.4745 33.7847C62.7278 34.2027 63.0635 34.5321 63.4815 34.7727C63.8995 35.0134 64.4188 35.1337 65.0395 35.1337C65.6728 35.1337 66.1985 35.0134 66.6165 34.7727C67.0471 34.5194 67.3828 34.1837 67.6235 33.7657C67.8768 33.3477 68.0605 32.8791 68.1745 32.3597C68.2885 31.8277 68.3455 31.2894 68.3455 30.7447V23.8667H70.9485V30.7447C70.9485 31.6694 70.8345 32.5371 70.6065 33.3477C70.3911 34.1584 70.0428 34.8741 69.5615 35.4947C69.0928 36.1027 68.4848 36.5841 67.7375 36.9387C66.9901 37.2807 66.0971 37.4517 65.0585 37.4517Z" fill="black"/>
<path d="M81.6265 27.4007C81.5378 27.3121 81.3731 27.1917 81.1325 27.0397C80.9045 26.8877 80.6195 26.7421 80.2775 26.6027C79.9481 26.4634 79.5871 26.3431 79.1945 26.2417C78.8018 26.1277 78.4028 26.0707 77.9975 26.0707C77.2881 26.0707 76.7498 26.2037 76.3825 26.4697C76.0278 26.7357 75.8505 27.1094 75.8505 27.5907C75.8505 27.9581 75.9645 28.2494 76.1925 28.4647C76.4205 28.6801 76.7625 28.8637 77.2185 29.0157C77.6745 29.1677 78.2445 29.3324 78.9285 29.5097C79.8151 29.7251 80.5815 29.9911 81.2275 30.3077C81.8861 30.6117 82.3865 31.0171 82.7285 31.5237C83.0831 32.0177 83.2605 32.6764 83.2605 33.4997C83.2605 34.2217 83.1275 34.8424 82.8615 35.3617C82.5955 35.8684 82.2281 36.2801 81.7595 36.5967C81.2908 36.9134 80.7588 37.1477 80.1635 37.2997C79.5681 37.4391 78.9348 37.5087 78.2635 37.5087C77.5921 37.5087 76.9208 37.4391 76.2495 37.2997C75.5781 37.1604 74.9321 36.9641 74.3115 36.7107C73.6908 36.4447 73.1208 36.1281 72.6015 35.7607L73.7605 33.4997C73.8745 33.6137 74.0771 33.7657 74.3685 33.9557C74.6598 34.1331 75.0145 34.3167 75.4325 34.5067C75.8505 34.6841 76.3065 34.8361 76.8005 34.9627C77.2945 35.0894 77.7948 35.1527 78.3015 35.1527C79.0108 35.1527 79.5491 35.0324 79.9165 34.7917C80.2838 34.5511 80.4675 34.2091 80.4675 33.7657C80.4675 33.3604 80.3218 33.0437 80.0305 32.8157C79.7391 32.5877 79.3338 32.3914 78.8145 32.2267C78.2951 32.0494 77.6808 31.8594 76.9715 31.6567C76.1228 31.4161 75.4135 31.1501 74.8435 30.8587C74.2735 30.5547 73.8491 30.1747 73.5705 29.7187C73.2918 29.2627 73.1525 28.6927 73.1525 28.0087C73.1525 27.0841 73.3678 26.3114 73.7985 25.6907C74.2418 25.0574 74.8371 24.5824 75.5845 24.2657C76.3318 23.9364 77.1615 23.7717 78.0735 23.7717C78.7068 23.7717 79.3021 23.8414 79.8595 23.9807C80.4295 24.1201 80.9615 24.3037 81.4555 24.5317C81.9495 24.7597 82.3928 25.0067 82.7855 25.2727L81.6265 27.4007Z" fill="black"/>
<path d="M85.2418 37.3567V23.8667H87.8638V37.3567H85.2418Z" fill="black"/>
<path d="M93.3003 28.6927V37.3567H90.6783V23.8667H92.7683L99.7413 32.7587V23.8857H102.363V37.3567H100.178L93.3003 28.6927Z" fill="black"/>
<path d="M114.537 35.0577V37.3567H105.17V23.8667H114.366V26.1657H107.792V29.4147H113.473V31.5427H107.792V35.0577H114.537Z" fill="black"/>
<path d="M124.618 27.4007C124.529 27.3121 124.364 27.1917 124.124 27.0397C123.896 26.8877 123.611 26.7421 123.269 26.6027C122.939 26.4634 122.578 26.3431 122.186 26.2417C121.793 26.1277 121.394 26.0707 120.989 26.0707C120.279 26.0707 119.741 26.2037 119.374 26.4697C119.019 26.7357 118.842 27.1094 118.842 27.5907C118.842 27.9581 118.956 28.2494 119.184 28.4647C119.412 28.6801 119.754 28.8637 120.21 29.0157C120.666 29.1677 121.236 29.3324 121.92 29.5097C122.806 29.7251 123.573 29.9911 124.219 30.3077C124.877 30.6117 125.378 31.0171 125.72 31.5237C126.074 32.0177 126.252 32.6764 126.252 33.4997C126.252 34.2217 126.119 34.8424 125.853 35.3617C125.587 35.8684 125.219 36.2801 124.751 36.5967C124.282 36.9134 123.75 37.1477 123.155 37.2997C122.559 37.4391 121.926 37.5087 121.255 37.5087C120.583 37.5087 119.912 37.4391 119.241 37.2997C118.569 37.1604 117.923 36.9641 117.303 36.7107C116.682 36.4447 116.112 36.1281 115.593 35.7607L116.752 33.4997C116.866 33.6137 117.068 33.7657 117.36 33.9557C117.651 34.1331 118.006 34.3167 118.424 34.5067C118.842 34.6841 119.298 34.8361 119.792 34.9627C120.286 35.0894 120.786 35.1527 121.293 35.1527C122.002 35.1527 122.54 35.0324 122.908 34.7917C123.275 34.5511 123.459 34.2091 123.459 33.7657C123.459 33.3604 123.313 33.0437 123.022 32.8157C122.73 32.5877 122.325 32.3914 121.806 32.2267C121.286 32.0494 120.672 31.8594 119.963 31.6567C119.114 31.4161 118.405 31.1501 117.835 30.8587C117.265 30.5547 116.84 30.1747 116.562 29.7187C116.283 29.2627 116.144 28.6927 116.144 28.0087C116.144 27.0841 116.359 26.3114 116.79 25.6907C117.233 25.0574 117.828 24.5824 118.576 24.2657C119.323 23.9364 120.153 23.7717 121.065 23.7717C121.698 23.7717 122.293 23.8414 122.851 23.9807C123.421 24.1201 123.953 24.3037 124.447 24.5317C124.941 24.7597 125.384 25.0067 125.777 25.2727L124.618 27.4007Z" fill="black"/>
<path d="M136.27 27.4007C136.181 27.3121 136.017 27.1917 135.776 27.0397C135.548 26.8877 135.263 26.7421 134.921 26.6027C134.592 26.4634 134.231 26.3431 133.838 26.2417C133.445 26.1277 133.046 26.0707 132.641 26.0707C131.932 26.0707 131.393 26.2037 131.026 26.4697C130.671 26.7357 130.494 27.1094 130.494 27.5907C130.494 27.9581 130.608 28.2494 130.836 28.4647C131.064 28.6801 131.406 28.8637 131.862 29.0157C132.318 29.1677 132.888 29.3324 133.572 29.5097C134.459 29.7251 135.225 29.9911 135.871 30.3077C136.53 30.6117 137.03 31.0171 137.372 31.5237C137.727 32.0177 137.904 32.6764 137.904 33.4997C137.904 34.2217 137.771 34.8424 137.505 35.3617C137.239 35.8684 136.872 36.2801 136.403 36.5967C135.934 36.9134 135.402 37.1477 134.807 37.2997C134.212 37.4391 133.578 37.5087 132.907 37.5087C132.236 37.5087 131.564 37.4391 130.893 37.2997C130.222 37.1604 129.576 36.9641 128.955 36.7107C128.334 36.4447 127.764 36.1281 127.245 35.7607L128.404 33.4997C128.518 33.6137 128.721 33.7657 129.012 33.9557C129.303 34.1331 129.658 34.3167 130.076 34.5067C130.494 34.6841 130.95 34.8361 131.444 34.9627C131.938 35.0894 132.438 35.1527 132.945 35.1527C133.654 35.1527 134.193 35.0324 134.56 34.7917C134.927 34.5511 135.111 34.2091 135.111 33.7657C135.111 33.3604 134.965 33.0437 134.674 32.8157C134.383 32.5877 133.977 32.3914 133.458 32.2267C132.939 32.0494 132.324 31.8594 131.615 31.6567C130.766 31.4161 130.057 31.1501 129.487 30.8587C128.917 30.5547 128.493 30.1747 128.214 29.7187C127.935 29.2627 127.796 28.6927 127.796 28.0087C127.796 27.0841 128.011 26.3114 128.442 25.6907C128.885 25.0574 129.481 24.5824 130.228 24.2657C130.975 23.9364 131.805 23.7717 132.717 23.7717C133.35 23.7717 133.946 23.8414 134.503 23.9807C135.073 24.1201 135.605 24.3037 136.099 24.5317C136.593 24.7597 137.036 25.0067 137.429 25.2727L136.27 27.4007Z" fill="black"/>
</svg>
