<svg xmlns="http://www.w3.org/2000/svg" width="101" height="28" viewBox="0 0 101 28" fill="none"><path d="M59.79 27.1226V10.4868C59.7922 9.65859 60.1245 8.86509 60.7141 8.28088C61.3037 7.69668 62.1023 7.36945 62.9341 7.3713V9.23713C63.4045 8.54987 64.0416 7.99191 64.7863 7.61511C65.5309 7.2383 66.3592 7.0548 67.1941 7.08156V7.04486C68.1351 7.01278 69.0721 7.18172 69.942 7.54048C70.8119 7.89925 71.5945 8.43938 72.2371 9.12459C73.5591 10.5329 74.2692 12.4039 74.213 14.3307C74.2648 16.2399 73.5543 18.0918 72.2371 19.4802C71.5987 20.1637 70.8213 20.7035 69.9567 21.0641C69.092 21.4246 68.16 21.5974 67.223 21.5709C65.6688 21.6207 64.1543 21.0769 62.99 20.0507V27.1195L59.79 27.1226ZM66.9501 18.5393C67.4926 18.5573 68.0328 18.4609 68.5353 18.2566C69.0378 18.0522 69.4914 17.7446 69.8661 17.3536C70.247 16.9565 70.5446 16.4879 70.7416 15.9751C70.9385 15.4623 71.0308 14.9155 71.0131 14.3667C71.0308 13.8124 70.9386 13.2598 70.7418 12.741C70.545 12.2222 70.2474 11.7471 69.8661 11.3429C69.493 10.9491 69.04 10.639 68.5372 10.433C68.0345 10.227 67.4934 10.1299 66.9501 10.1482C66.4007 10.1271 65.8531 10.2227 65.3438 10.4287C64.8344 10.6347 64.3751 10.9463 63.9961 11.3429C63.2282 12.1472 62.8093 13.2202 62.8301 14.3297C62.8135 14.8784 62.9063 15.4247 63.1031 15.9374C63.3 16.4501 63.5971 16.9189 63.9771 17.3166C64.3582 17.7099 64.8184 18.0185 65.3276 18.2225C65.8368 18.4265 66.3835 18.5212 66.932 18.5004L66.9501 18.5393ZM44.5231 27.1226V10.4868C44.5249 9.65886 44.857 8.86557 45.4462 8.28137C46.0354 7.69716 46.8335 7.36972 47.665 7.3713V9.23713C48.1357 8.54986 48.773 7.9919 49.5178 7.61511C50.2627 7.23831 51.091 7.05481 51.926 7.08156V7.04486C52.8623 7.01737 53.7938 7.18844 54.6584 7.54705C55.5231 7.90565 56.3012 8.44344 56.941 9.12459C58.2628 10.533 58.9725 12.404 58.916 14.3307C58.9677 16.2397 58.2575 18.0914 56.941 19.4802C56.3025 20.1636 55.5248 20.7035 54.66 21.0641C53.7952 21.4246 52.8632 21.5973 51.926 21.5709C50.3718 21.6209 48.8572 21.0771 47.693 20.0507V27.1195L44.5231 27.1226ZM51.682 18.5393C52.2245 18.5573 52.7648 18.4609 53.2673 18.2566C53.7699 18.0522 54.2233 17.7446 54.598 17.3536C54.9787 16.9563 55.2763 16.4876 55.4734 15.9749C55.6705 15.4621 55.7632 14.9155 55.7461 14.3667C55.7636 13.8123 55.6711 13.2598 55.4741 12.741C55.2771 12.2222 54.9795 11.7471 54.598 11.3429C54.2251 10.9489 53.7722 10.6386 53.2694 10.4326C52.7666 10.2265 52.2254 10.1296 51.682 10.1482C51.1338 10.1206 50.586 10.2095 50.075 10.409C49.5639 10.6085 49.1013 10.9138 48.718 11.3049C47.9523 12.1235 47.5435 13.2108 47.5811 14.3288C47.5624 14.8768 47.6533 15.423 47.8485 15.9357C48.0437 16.4485 48.3392 16.9176 48.718 17.3156C49.0992 17.7089 49.5594 18.0176 50.0686 18.2216C50.5778 18.4256 51.1246 18.5202 51.6731 18.4994L51.682 18.5393ZM77.0911 19.4911C76.4166 18.8156 75.8865 18.011 75.5326 17.126C75.1787 16.2411 75.0084 15.2939 75.032 14.3416C74.9525 12.4202 75.6391 10.5453 76.942 9.12556C77.5877 8.44458 78.3707 7.90719 79.2396 7.54875C80.1086 7.1903 81.0438 7.01902 81.984 7.04583C82.9189 7.01542 83.8497 7.18344 84.7144 7.53878C85.579 7.89412 86.3578 8.42871 86.999 9.10684C88.3073 10.5065 89.0071 12.364 88.946 14.275H88.9751C88.9711 14.7391 88.9234 15.2017 88.833 15.6569H78.333C78.5454 16.5004 79.0519 17.2415 79.7621 17.7478C80.4995 18.2801 81.3926 18.5554 82.3031 18.5312C82.9953 18.567 83.6839 18.4118 84.2931 18.0825C84.9022 17.7533 85.4081 17.2628 85.755 16.6654L88.399 18.2984C87.7751 19.3002 86.9033 20.1257 85.8671 20.6958C84.776 21.293 83.5481 21.5982 82.3031 21.5818H82.103C81.1697 21.5829 80.2455 21.3985 79.3846 21.0393C78.5238 20.6801 77.7438 20.1535 77.0901 19.4902L77.0911 19.4911ZM79.547 10.8421C78.871 11.3749 78.4129 12.1343 78.2581 12.9787H85.717C85.5713 12.1428 85.127 11.3876 84.4661 10.8521C83.7677 10.3302 82.9119 10.0601 82.0391 10.0864H82.0121H81.8721C81.0343 10.0844 80.2178 10.3492 79.542 10.8421H79.547ZM31.701 19.4911C31.0262 18.8158 30.4958 18.0113 30.1417 17.1263C29.7877 16.2413 29.6173 15.294 29.641 14.3416C29.5821 12.4143 30.2923 10.5421 31.6161 9.13455C32.9462 7.8072 34.7506 7.05908 36.6338 7.05385C38.517 7.04863 40.3256 7.7869 41.6631 9.10684C42.9723 10.506 43.6725 12.3638 43.6111 14.275C43.606 14.7386 43.5617 15.2008 43.479 15.6569H32.979C33.179 16.4963 33.6725 17.2375 34.3711 17.7478C35.1047 18.2801 35.9947 18.5554 36.9021 18.5312C37.5942 18.5666 38.2827 18.4112 38.8917 18.082C39.5008 17.7528 40.0067 17.2625 40.354 16.6654L42.9961 18.2984C42.3727 19.2999 41.5015 20.1253 40.4661 20.6958C39.3745 21.2927 38.1462 21.5978 36.901 21.5818H36.701C35.7695 21.5823 34.8473 21.3978 33.9885 21.0385C33.1297 20.6793 32.3517 20.1529 31.7001 19.4902L31.701 19.4911ZM34.212 10.8421C33.5399 11.378 33.0829 12.1361 32.9241 12.9787H40.384C40.2315 12.1384 39.7764 11.3823 39.104 10.8521C38.4057 10.3302 37.5498 10.0601 36.677 10.0864H36.5441C35.7055 10.0853 34.8884 10.35 34.2111 10.8421H34.212ZM8.1261 21.5709C8.0501 21.5709 7.97309 21.5709 7.89709 21.5709C7.82109 21.5709 7.74399 21.5709 7.66699 21.5709C6.11555 21.5303 4.60393 21.0733 3.29199 20.2478C2.17945 19.5285 1.29518 18.5091 0.742065 17.3086L3.47998 15.5723C4.27998 17.4391 5.81305 18.372 8.18005 18.372C8.26005 18.372 8.342 18.3791 8.422 18.3791C9.49141 18.3791 10.5273 18.0067 11.3501 17.3266C11.5566 17.1205 11.7175 16.8738 11.8228 16.6022C11.928 16.3307 11.9751 16.0403 11.9611 15.7495C11.9566 15.2497 11.7881 14.7651 11.4811 14.3696C11.1205 13.9527 10.6613 13.6318 10.145 13.4357C9.28868 13.0586 8.40488 12.7467 7.5011 12.5028L6.354 12.1294L6.19507 12.0738C4.86858 11.7118 3.64466 11.0478 2.62 10.1343C2.23308 9.7101 1.91562 9.22792 1.67908 8.70553C1.40512 8.07237 1.26878 7.38854 1.27905 6.69921C1.24527 5.89698 1.39728 5.09794 1.72327 4.36353C2.04926 3.62912 2.5405 2.97911 3.15906 2.46392C4.34415 1.49388 5.82036 0.945284 7.354 0.904849H8.13306C9.4775 0.944745 10.7844 1.3555 11.9081 2.09153C12.9607 2.7996 13.8154 3.76232 14.3921 4.88929L11.6731 6.54097C11.3703 5.79469 10.8503 5.15568 10.1799 4.70577C9.5096 4.25587 8.71943 4.01573 7.91101 4.01618C7.83801 4.01618 7.76609 4.01606 7.69409 4.02104C7.62209 4.02602 7.57308 4.02104 7.51208 4.02104C6.73487 4.02075 5.97782 4.26737 5.35107 4.72498C5.06844 4.94449 4.84352 5.22915 4.6958 5.55434C4.54808 5.87952 4.48197 6.23549 4.50305 6.59177C4.48251 6.91248 4.5453 7.233 4.68542 7.5225C4.82555 7.81199 5.03834 8.06061 5.3031 8.24442C6.10979 8.75767 6.98778 9.15032 7.90906 9.40947L8.651 9.66226C9.631 9.98783 10.651 10.3233 11.597 10.7444C12.7297 11.1941 13.7089 11.9583 14.4181 12.9459C14.9107 13.79 15.1712 14.7485 15.1731 15.7247C15.174 15.7343 15.174 15.7438 15.1731 15.7534C15.1714 16.5614 14.9936 17.3596 14.6521 18.0925C14.3106 18.8254 13.8136 19.4758 13.1951 19.9989C11.9241 20.9586 10.3888 21.5086 8.79504 21.575C8.68304 21.58 8.57003 21.5818 8.45703 21.5818C8.34403 21.5818 8.2421 21.5759 8.1261 21.5699V21.5709ZM97.026 20.7884C96.7765 20.5354 96.5934 20.2252 96.4927 19.8852C96.392 19.5451 96.3768 19.1855 96.4485 18.8382C96.5202 18.491 96.6766 18.1664 96.9038 17.8934C97.1311 17.6204 97.4221 17.4074 97.7516 17.2729C98.081 17.1383 98.4388 17.0865 98.7931 17.1219C99.1474 17.1573 99.4876 17.279 99.7836 17.4761C100.08 17.6732 100.322 17.9397 100.49 18.2522C100.659 18.5647 100.747 18.9135 100.748 19.268H100.738C100.736 19.6952 100.606 20.1121 100.367 20.4663C100.127 20.8206 99.7873 21.0965 99.3905 21.259C98.9937 21.4215 98.5576 21.4635 98.1368 21.3798C97.7161 21.2961 97.3296 21.0903 97.026 20.7884ZM89.9761 21.311V10.4868C89.967 10.0734 90.0412 9.66229 90.1942 9.27796C90.3473 8.89364 90.5761 8.54387 90.8672 8.24904C91.1583 7.95421 91.5057 7.72033 91.889 7.56139C92.2724 7.40244 92.6838 7.3217 93.099 7.32366V9.18924C93.5337 8.50262 94.143 7.94263 94.8651 7.56601C95.5872 7.18938 96.3966 7.00971 97.2111 7.04486C97.6693 7.04463 98.1263 7.09092 98.5751 7.18317V9.96391C97.8658 9.85456 97.1426 9.8736 96.4401 10.0198C95.5048 10.1947 94.6671 10.7063 94.087 11.4574C93.3068 12.7658 92.9768 14.292 93.1471 15.8042V21.311H89.9761ZM16.157 21.2634V3.3679C16.1588 2.53234 16.494 1.73171 17.0886 1.14209C17.6833 0.552468 18.4888 0.222175 19.328 0.223761V8.34116C20.1392 7.62555 21.1423 7.16088 22.2146 7.00427C23.2869 6.84766 24.3818 7.00578 25.3652 7.4593C26.3486 7.91282 27.1779 8.64214 27.7513 9.55774C28.3248 10.4733 28.6177 11.5356 28.594 12.6144V21.2534H25.4241V13.173C25.4366 12.7708 25.3689 12.3703 25.2251 11.9943C25.0813 11.6183 24.8641 11.2743 24.5861 10.9824C24.2999 10.6906 23.9549 10.4624 23.5739 10.313C23.1928 10.1635 22.7841 10.0962 22.375 10.1153C21.9664 10.0994 21.5589 10.1683 21.1785 10.3176C20.798 10.4669 20.4529 10.6932 20.165 10.9824C19.8837 11.2724 19.6637 11.6158 19.5182 11.9921C19.3727 12.3684 19.3046 12.77 19.318 13.173V21.2624L16.157 21.2634ZM7.71008 0.904849H7.92102H8.13208H7.71008Z" fill="#F19509"></path></svg>