<svg xmlns="http://www.w3.org/2000/svg" width="126" height="27" viewBox="0 0 126 27" fill="none"><path d="M7.45688 26.306C6.63535 26.0664 5.84466 25.7323 5.10086 25.3104C4.37139 24.8967 3.70108 24.3874 3.10788 23.796C2.51795 23.195 1.99703 22.5305 1.55484 21.8147C0.678382 20.3171 0.214158 18.6156 0.20889 16.8823C0.196774 15.9993 0.31882 15.1194 0.570889 14.2727C0.80887 13.4638 1.13935 12.6847 1.55587 11.9509C1.99001 11.2289 2.51156 10.5629 3.10885 9.96762C3.70186 9.37657 4.37222 8.86782 5.10183 8.45523C5.84638 8.03481 6.63689 7.70075 7.45785 7.4596C8.29879 7.21799 9.16958 7.09505 10.0448 7.09426C11.4821 7.12472 12.8922 7.49131 14.1609 8.16451C14.8402 8.49567 15.482 8.89792 16.0758 9.36432C16.7058 9.84587 17.2945 10.3788 17.8358 10.9574L16.7488 12.0794C16.496 12.3507 16.1874 12.5642 15.8439 12.7056C15.4736 12.8565 15.078 12.9366 14.6779 12.9416C14.107 12.9357 13.5506 12.7626 13.0779 12.4438C12.6361 12.1633 12.1671 11.9278 11.6779 11.7408C11.1702 11.5676 10.6352 11.4876 10.0989 11.5048C9.38919 11.4987 8.68565 11.6368 8.0314 11.9107C7.37715 12.1847 6.78589 12.5887 6.29385 13.0979C5.80188 13.6009 5.39919 14.1833 5.10287 14.8203C4.72468 15.4403 4.53567 16.1564 4.55887 16.8813C4.54247 17.6055 4.70235 18.3227 5.02487 18.972C5.30495 19.6181 5.70957 20.2036 6.21585 20.6947C6.71096 21.1837 7.28925 21.5814 7.92386 21.8694C8.58782 22.1499 9.30258 22.2916 10.0238 22.2856C11.0996 22.3046 12.1525 21.975 13.0238 21.3466C13.4945 21.0237 14.0522 20.8502 14.6238 20.8488C15.0137 20.828 15.4034 20.8921 15.766 21.0362C16.1286 21.1802 16.4555 21.401 16.7239 21.6832L17.8368 22.8053C17.3017 23.3901 16.7124 23.9235 16.0768 24.3983C15.4791 24.8593 14.8379 25.2609 14.1619 25.5979C13.5139 25.9188 12.8381 26.1812 12.1428 26.3816C11.4581 26.5663 10.7523 26.6623 10.0429 26.6672C9.16727 26.6808 8.29486 26.5591 7.45688 26.306ZM44.4959 20.4615C43.9163 20.2973 43.3599 20.0608 42.8399 19.7576C42.3273 19.4539 41.8498 19.095 41.4159 18.6874C40.9954 18.2655 40.6304 17.7921 40.3299 17.2785C40.022 16.7647 39.7866 16.2114 39.6299 15.6339C39.2845 14.4233 39.2845 13.1406 39.6299 11.9299C39.7881 11.3529 40.0235 10.7999 40.3299 10.2853C40.6459 9.78233 41.0097 9.31054 41.4159 8.87647C41.8379 8.4553 42.3172 8.09536 42.8399 7.8072C43.3604 7.50488 43.9167 7.26809 44.4959 7.10229C45.5822 6.77292 46.7397 6.75498 47.8358 7.05051C48.3354 7.18761 48.821 7.37131 49.2859 7.59913C50.2664 8.10357 51.1508 8.77434 51.8998 9.58138L51.0999 10.3908C50.9201 10.5842 50.6994 10.7356 50.4539 10.8339C50.1396 10.9764 49.794 11.0368 49.4497 11.0097C49.1054 10.9825 48.7737 10.8686 48.4859 10.6786C48.1778 10.4761 47.8477 10.3091 47.5019 10.1808C47.1454 10.0531 46.7686 9.99125 46.3899 9.99849C45.8738 9.99924 45.3633 10.1053 44.8899 10.3101C44.431 10.503 44.0167 10.7877 43.6729 11.1465C43.3241 11.5067 43.036 11.9205 42.8199 12.3721C42.5457 12.7694 42.4175 13.2487 42.4568 13.7292C42.455 14.2411 42.5607 14.7476 42.7669 15.2165C42.9667 15.6782 43.2574 16.0954 43.6219 16.4433C43.9819 16.7818 44.3921 17.0631 44.8379 17.2775C45.3097 17.4875 45.8212 17.594 46.3379 17.5901C46.7243 17.5825 47.1075 17.5213 47.4768 17.4081C47.8198 17.2739 48.149 17.1072 48.4599 16.9103C48.7932 16.6786 49.1926 16.5598 49.5989 16.5717C49.8914 16.5684 50.1817 16.6214 50.4539 16.728C50.6904 16.8424 50.9082 16.9918 51.0999 17.1711L51.8998 17.9805C51.5244 18.3951 51.1083 18.7712 50.6579 19.1035C50.2223 19.4234 49.7638 19.7109 49.2859 19.9637C48.8247 20.1997 48.3382 20.3834 47.8358 20.5114C47.3468 20.6443 46.8427 20.7145 46.3358 20.7204C45.7122 20.7276 45.0912 20.6403 44.4939 20.4615H44.4959ZM122.696 20.5921C122.272 20.599 121.854 20.5 121.479 20.3043C121.133 20.1078 120.833 19.8406 120.598 19.5206L118.45 16.5469C118.398 16.4742 118.354 16.3956 118.321 16.3128C118.299 16.2413 118.274 16.1712 118.244 16.1028C118.217 16.0251 118.192 15.9734 118.166 15.8937C118.141 15.9724 118.115 16.0241 118.089 16.1028C118.059 16.1712 118.033 16.2413 118.012 16.3128C117.984 16.3908 117.939 16.462 117.882 16.5218L115.734 19.4958C115.49 19.8239 115.182 20.099 114.828 20.3043C114.453 20.5 114.035 20.599 113.612 20.5921H111.076L115.761 14.1733C115.827 14.0861 115.88 13.9889 115.916 13.8855C115.936 13.8268 115.945 13.765 115.942 13.7032V13.6514C115.94 13.5622 115.922 13.4741 115.891 13.3906C115.839 13.3129 115.813 13.2344 115.761 13.1558L111.179 6.91901H113.716C114.139 6.91565 114.556 7.01444 114.932 7.20681C115.288 7.38742 115.592 7.65696 115.812 7.98926L117.883 10.807C117.934 10.8846 117.96 10.9364 118.013 11.015C118.034 11.078 118.059 11.1394 118.09 11.1983C118.116 11.276 118.142 11.3287 118.167 11.4064C118.188 11.3465 118.205 11.2852 118.218 11.2231C118.245 11.1723 118.271 11.0928 118.296 11.042C118.323 10.9634 118.368 10.8917 118.426 10.832L120.471 8.04419C120.694 7.6912 121.01 7.40511 121.384 7.21677C121.758 7.02844 122.176 6.94496 122.594 6.97492H125.13L120.497 13.2095C120.425 13.3029 120.372 13.4094 120.341 13.523C120.32 13.5722 120.312 13.6254 120.316 13.6784C120.316 13.7311 120.341 13.7829 120.341 13.8356C120.367 13.8874 120.367 13.9402 120.393 13.9919C120.419 14.0437 120.444 14.0965 120.47 14.1473C120.833 14.6451 121.221 15.1649 121.635 15.7403C122.024 16.2879 122.464 16.8614 122.877 17.41C123.29 17.9586 123.706 18.5051 124.095 19.0537C124.484 19.6023 124.871 20.0972 125.207 20.593L122.696 20.5921ZM96.1128 20.5651L101.989 6.91998H104.654L110.554 20.5393H108.557C108.354 20.5396 108.153 20.5133 107.957 20.4615C107.765 20.4106 107.581 20.3313 107.413 20.2265C107.25 20.1255 107.102 20.0026 106.973 19.8612C106.836 19.718 106.73 19.5486 106.662 19.3633L105.989 17.85H100.631L99.9839 19.3633C99.8217 19.7094 99.5603 20.0001 99.2328 20.1988C99.0654 20.3113 98.8825 20.3991 98.6898 20.4596C98.4949 20.518 98.2933 20.5513 98.0899 20.559L96.1128 20.5651ZM103.283 11.5119C103.257 11.6114 103.23 11.7209 103.205 11.8254C103.178 11.944 103.134 12.0583 103.076 12.165L101.859 15.0085H104.759L103.594 12.165C103.543 12.0457 103.499 11.9234 103.464 11.7987C103.444 11.6929 103.418 11.5882 103.387 11.4851C103.359 11.3921 103.341 11.2962 103.335 11.1993C103.327 11.3055 103.308 11.4105 103.278 11.5128L103.283 11.5119ZM53.1968 20.5651L59.0729 6.91998H61.7389L67.6388 20.5393H65.6448C65.4439 20.5391 65.244 20.5129 65.0498 20.4615C64.8579 20.4103 64.6746 20.3311 64.5059 20.2265C64.343 20.1255 64.1948 20.0026 64.0658 19.8612C63.9289 19.7183 63.8231 19.5488 63.7549 19.3633L63.0818 17.85H57.7239L57.0758 19.3633C56.9143 19.7092 56.6537 19.9999 56.3268 20.1988C56.1589 20.3111 55.9757 20.3989 55.7829 20.4596C55.588 20.5182 55.3863 20.5515 55.1829 20.559L53.1968 20.5651ZM60.3399 11.5119C60.3149 11.6114 60.2888 11.7209 60.2638 11.8254C60.2358 11.9438 60.1921 12.0581 60.1338 12.165L58.9429 15.0085H61.8169L60.6529 12.165C60.6021 12.0456 60.5587 11.9233 60.5229 11.7987C60.5027 11.6929 60.477 11.5882 60.4458 11.4851C60.4182 11.392 60.4007 11.2961 60.3938 11.1993C60.3568 11.3038 60.3569 11.3824 60.3349 11.5128L60.3399 11.5119ZM82.8849 6.91901H88.4768C89.0904 6.91393 89.7011 7.00241 90.2879 7.18104C90.8504 7.33685 91.3902 7.56467 91.8938 7.85897C92.3944 8.16947 92.8633 8.52789 93.2939 8.92922C93.7058 9.34245 94.0625 9.80688 94.3549 10.3111C94.6559 10.8188 94.8911 11.3624 95.0548 11.929C95.4005 13.1044 95.4005 14.3537 95.0548 15.5291C94.891 16.0957 94.6559 16.6393 94.3549 17.147C94.0469 17.641 93.6915 18.1043 93.2939 18.5301C92.8865 18.9505 92.4137 19.3027 91.8938 19.5734C91.396 19.8787 90.8546 20.1072 90.2879 20.2506C89.6987 20.4183 89.0896 20.5063 88.4768 20.5123L82.8849 20.5381V6.91901ZM85.9659 17.3821L88.4768 17.4338C88.9682 17.4327 89.4536 17.3261 89.8998 17.1212C90.3401 16.9315 90.7436 16.6662 91.0918 16.3376C91.4338 15.9968 91.714 15.5997 91.9198 15.1638C92.1262 14.7135 92.2323 14.2241 92.2309 13.7292C92.2296 13.2342 92.1236 12.7449 91.9198 12.2933C91.7295 11.8486 91.4474 11.4487 91.0918 11.1195C90.7374 10.7919 90.3356 10.5191 89.8998 10.3101C89.4544 10.1029 88.9685 9.99651 88.4768 9.99849H85.9568L85.9659 17.3821ZM70.0729 20.5393V6.91998H75.5088C76.1227 6.92303 76.7298 7.04774 77.2948 7.28653C77.833 7.54017 78.3233 7.88437 78.7439 8.30404C79.1691 8.73302 79.4959 9.2487 79.7018 9.81546C79.9423 10.3846 80.0572 10.9983 80.0388 11.6154C80.0321 12.2304 79.9181 12.8396 79.7018 13.4156C79.4603 13.9652 79.1375 14.4757 78.7439 14.9299C78.3303 15.3575 77.8384 15.7025 77.2948 15.9465C76.7434 16.2002 76.1412 16.3254 75.5338 16.3128H73.1798L73.1529 20.5381L70.0729 20.5393ZM73.1529 13.286H75.5088C75.7014 13.2869 75.8903 13.2326 76.0529 13.1298C76.2194 13.0228 76.3753 12.9005 76.5188 12.7644C76.6611 12.6166 76.7673 12.4381 76.8289 12.2428C76.9088 12.0613 76.9529 11.8662 76.9589 11.6682C76.9557 11.4701 76.9114 11.275 76.8289 11.0948C76.7464 10.9094 76.6423 10.7343 76.5188 10.5731C76.3891 10.422 76.2308 10.2977 76.0529 10.2075C75.8902 10.105 75.7014 10.0507 75.5088 10.0512H73.1529V13.286ZM18.4868 20.0952C17.7818 19.9242 17.1026 19.6609 16.4668 19.3125C15.7877 18.9811 15.1459 18.5791 14.5519 18.113C13.9224 17.6309 13.3337 17.098 12.7919 16.5199L13.9059 15.3979C14.1586 15.1262 14.4672 14.9121 14.8108 14.7705C15.181 14.6203 15.5762 14.5407 15.9759 14.5357C16.5468 14.5412 17.1033 14.7144 17.5758 15.0335C18.0177 15.3144 18.4867 15.5506 18.9759 15.7384C19.4832 15.9112 20.0179 15.9907 20.5539 15.9732C21.2637 15.9792 21.9673 15.8412 22.6217 15.5673C23.2761 15.2934 23.8676 14.8895 24.3599 14.3804C24.852 13.8774 25.2544 13.2946 25.5498 12.657C25.914 12.0327 26.0933 11.3184 26.0669 10.5969C26.0835 9.87287 25.9239 9.15544 25.6018 8.50603C25.3219 7.86009 24.9173 7.2752 24.4109 6.78459C23.9158 6.29509 23.337 5.89734 22.7018 5.60982C22.0378 5.3292 21.3231 5.18727 20.6018 5.19271C19.5261 5.1737 18.4732 5.50307 17.6018 6.13145C17.1308 6.45361 16.5733 6.62708 16.0019 6.62927C15.6119 6.65001 15.2222 6.5861 14.8595 6.44186C14.4969 6.29761 14.1701 6.07662 13.9019 5.79407L12.7879 4.67205C13.3232 4.08744 13.9125 3.554 14.5479 3.07895C15.7213 2.17547 17.0566 1.50276 18.4828 1.0967C19.1676 0.912021 19.8735 0.815568 20.5829 0.80987C21.4593 0.797973 22.3321 0.920854 23.1708 1.17424C23.9921 1.41361 24.7826 1.74775 25.5259 2.16986C26.2555 2.58243 26.9258 3.09118 27.5188 3.68226C28.1089 4.28385 28.6298 4.949 29.0718 5.66548C29.9469 7.16336 30.4112 8.86411 30.4179 10.5969C30.4301 11.4797 30.3077 12.3591 30.0548 13.2053C29.8179 14.0148 29.4877 14.7942 29.0708 15.5281C28.6375 16.2506 28.1159 16.917 27.5178 17.5116C26.9246 18.1024 26.2542 18.6109 25.5248 19.0238C24.7805 19.444 23.9904 19.778 23.1698 20.0194C22.3285 20.2606 21.4574 20.3838 20.5818 20.385C19.8721 20.381 19.1659 20.2851 18.4809 20.1001L18.4868 20.0952Z" fill="#F19509"></path></svg>