<svg xmlns="http://www.w3.org/2000/svg" width="107" height="20" viewBox="0 0 107 20" fill="none"><path d="M61.0683 17.6426C60.5813 17.1585 60.2022 16.5778 59.9556 15.9381C59.709 15.2985 59.6006 14.6141 59.6374 13.9299V7.30713H57.9503V4.41967H59.6363V0.11972H63.6743V4.41967H67.1533V7.30713H63.6753V13.7459C63.6483 14.2159 63.8016 14.6783 64.1043 15.04C64.2294 15.1866 64.3851 15.3045 64.5606 15.3852C64.736 15.4658 64.927 15.5072 65.1203 15.5069C65.496 15.5039 65.8653 15.4099 66.1963 15.233C66.5273 15.0561 66.8101 14.8017 67.0203 14.4916L68.5203 17.2962C67.4746 18.3493 66.062 18.9614 64.5753 19.0057H64.4604C63.1949 19.0066 61.9786 18.5178 61.0683 17.6426ZM101.968 18.3246C101.572 17.9379 101.323 17.4261 101.263 16.8766C101.204 16.3272 101.339 15.7744 101.643 15.3127C101.948 14.851 102.405 14.5091 102.935 14.3455C103.465 14.182 104.036 14.2067 104.55 14.4158C105.063 14.6249 105.488 15.0054 105.751 15.4919C106.015 15.9784 106.1 16.5409 105.993 17.083C105.885 17.6252 105.592 18.1134 105.163 18.4642C104.734 18.8149 104.196 19.0063 103.641 19.0057H103.592C103.289 19.0061 102.988 18.946 102.709 18.829C102.429 18.712 102.175 18.5406 101.963 18.3246H101.968ZM89.7333 18.4311C88.5951 18.0608 87.5342 17.4873 86.6023 16.7386L88.3693 14.2276C89.7223 15.3324 91.4136 15.9442 93.1634 15.962C93.5952 15.9857 94.0242 15.8793 94.3943 15.6564C94.5349 15.5715 94.6508 15.4515 94.7306 15.3083C94.8104 15.1652 94.8512 15.0037 94.8493 14.8399C94.8308 14.6445 94.7635 14.4566 94.6537 14.2935C94.5439 14.1304 94.395 13.9973 94.2204 13.9061C93.6548 13.5571 93.0429 13.2889 92.4024 13.1095C91.6024 12.8613 90.9956 12.648 90.5823 12.4695C90.0856 12.2491 89.6071 11.99 89.1513 11.6948C88.6314 11.3881 88.2049 10.9464 87.9173 10.4172C87.6297 9.88805 87.4918 9.29108 87.5183 8.68997C87.5056 8.0611 87.6442 7.43838 87.9225 6.87373C88.2009 6.30908 88.6109 5.81888 89.1183 5.44422C90.3158 4.56681 91.7789 4.12408 93.2643 4.18972C95.0935 4.23057 96.8667 4.82672 98.3463 5.89828L96.8463 8.56746C95.7636 7.76977 94.4607 7.3229 93.1143 7.2872C91.8743 7.2872 91.2549 7.62573 91.2562 8.30275C91.259 8.49019 91.3159 8.67292 91.4202 8.82901C91.5245 8.98509 91.6717 9.10795 91.8443 9.18292C92.4719 9.48971 93.1259 9.73992 93.7984 9.93061C94.7084 10.2144 95.3523 10.4284 95.7364 10.5847C96.2144 10.7837 96.6755 11.0207 97.1153 11.2935C97.6188 11.614 98.0248 12.0656 98.2892 12.5993C98.5536 13.133 98.6663 13.7284 98.6153 14.3212C98.6376 14.9707 98.5076 15.6165 98.2356 16.2072C97.9636 16.7979 97.5572 17.3172 97.0484 17.7242C95.9189 18.607 94.5112 19.0618 93.0763 19.0077C91.9365 18.9958 90.806 18.801 89.7283 18.4311H89.7333ZM76.0773 19.0057C74.6099 19.0456 73.1847 18.5137 72.1052 17.5232C71.5431 16.945 71.1101 16.2549 70.8344 15.4984C70.5586 14.7419 70.4464 13.9362 70.5053 13.1336V4.42186H74.5343V12.2454C74.5343 14.4563 75.3459 15.5601 76.9693 15.5568C77.3577 15.5606 77.7429 15.4859 78.1013 15.3368C78.4598 15.1877 78.7841 14.9675 79.0543 14.6897C79.3661 14.3512 79.6055 13.9529 79.7578 13.5193C79.9102 13.0858 79.9722 12.6258 79.9403 12.1676V4.42064H83.9773V18.7836H79.9403V16.892C79.5291 17.5411 78.9586 18.0755 78.2829 18.4447C77.6071 18.8139 76.8481 19.0058 76.0773 19.0026V19.0057ZM43.9413 17.6834C43.4314 17.251 43.0269 16.7088 42.7583 16.0978C42.4898 15.4869 42.3643 14.8232 42.3913 14.1569C42.352 13.5169 42.4785 12.8775 42.7587 12.3001C43.0389 11.7227 43.4633 11.2266 43.9914 10.8594C45.3094 10.0624 46.8385 9.68078 48.3783 9.76435H51.3783V9.68462C51.3783 8.15269 50.5673 7.38661 48.9453 7.38661C48.1936 7.39879 47.4494 7.53921 46.7453 7.80178C46.0403 8.04048 45.377 8.38736 44.7793 8.82949L42.9793 6.24077C44.8563 4.87462 47.1284 4.1528 49.4533 4.18389C50.9885 4.11659 52.5 4.579 53.7323 5.49308C54.3138 6.00671 54.7666 6.64843 55.0548 7.36717C55.343 8.08591 55.4586 8.86176 55.3924 9.63285V18.7976H51.6173V17.0582C51.1784 17.6628 50.6013 18.1549 49.9339 18.4938C49.2664 18.8328 48.5276 19.0089 47.7783 19.0077C46.3774 19.0537 45.0088 18.582 43.9363 17.6834H43.9413ZM46.4293 14.1192C46.4164 14.3506 46.4623 14.5812 46.563 14.7901C46.6637 14.999 46.8159 15.1793 47.0053 15.3139C47.4966 15.619 48.0714 15.7635 48.6493 15.7272C49.3353 15.7364 50.0027 15.5048 50.5343 15.073C50.8002 14.8651 51.0126 14.5972 51.1543 14.2916C51.296 13.9859 51.3628 13.651 51.3493 13.3147V12.6178H48.8373C47.2346 12.6204 46.43 13.121 46.4234 14.1192H46.4293ZM1.76126 17.6834C1.25306 17.2498 0.850038 16.7073 0.582302 16.0966C0.314566 15.4859 0.189095 14.8228 0.215298 14.1569C0.175511 13.5168 0.301851 12.8773 0.582058 12.2998C0.862265 11.7223 1.28695 11.2262 1.81533 10.8594C3.13746 10.0608 4.67131 9.67914 6.21536 9.76435H9.21536V9.68462C9.21536 8.15269 8.40363 7.38661 6.7803 7.38661C6.0285 7.39859 5.2844 7.53902 4.58035 7.80178C3.87514 8.04066 3.2115 8.38752 2.61331 8.82949L0.813259 6.24077C2.68955 4.87464 4.96104 4.1528 7.28531 4.18389C8.8207 4.11759 10.3322 4.57989 11.5653 5.49308C12.1475 6.00612 12.6007 6.64777 12.8888 7.36668C13.1769 8.0856 13.2918 8.86174 13.2243 9.63285L13.2063 18.7976H9.44131V17.0582C9.00215 17.6623 8.4253 18.1542 7.75808 18.4931C7.09087 18.832 6.35232 19.0083 5.6033 19.0077C4.20042 19.0544 2.82977 18.5826 1.75528 17.6834H1.76126ZM4.24929 14.1192C4.2365 14.3505 4.28246 14.581 4.38296 14.7899C4.48347 14.9987 4.63535 15.179 4.82437 15.3139C5.31593 15.6193 5.89105 15.7638 6.46926 15.7272C7.15526 15.7363 7.82259 15.5047 8.35427 15.073C8.62008 14.865 8.83259 14.597 8.97427 14.2913C9.11594 13.9857 9.18281 13.651 9.16934 13.3147H9.16128V12.6178H6.66128C5.04861 12.6204 4.24265 13.121 4.24331 14.1192H4.24929ZM26.0493 18.7986V10.942C26.1107 10.0736 25.9305 9.20513 25.5283 8.43207C25.3429 8.16274 25.0891 7.94728 24.7928 7.80737C24.4964 7.66746 24.1681 7.60805 23.8413 7.63552C23.4571 7.6355 23.0767 7.71244 22.7228 7.86158C22.3689 8.01071 22.0487 8.22908 21.7813 8.50377C21.4642 8.84498 21.2211 9.24771 21.0672 9.68656C20.9132 10.1254 20.8515 10.591 20.8863 11.0546V18.8006H16.8743V4.43571H20.8863V6.06551C21.3412 5.4934 21.9182 5.02894 22.5753 4.70577C23.2325 4.38259 23.9535 4.20881 24.6863 4.19677C25.575 4.18994 26.4422 4.46938 27.1584 4.99332C27.8704 5.49469 28.4454 6.16509 28.8313 6.94374C29.3771 6.07807 30.149 5.37631 31.0644 4.91359C31.9332 4.45005 32.9017 4.20261 33.8874 4.19264C34.6361 4.15902 35.3839 4.27532 36.0867 4.5344C36.7895 4.79348 37.4331 5.19021 37.9793 5.70115C38.5231 6.28252 38.9415 6.96874 39.2084 7.71743C39.4753 8.46612 39.5852 9.26144 39.5313 10.0541V18.7867H35.4943V10.9411C35.4943 8.73343 34.6827 7.62938 33.0594 7.62871C32.6709 7.62588 32.2857 7.7015 31.9274 7.85088C31.569 8.00027 31.2448 8.22037 30.9743 8.49794C30.6615 8.84223 30.422 9.24598 30.27 9.68486C30.1181 10.1237 30.0571 10.5886 30.0904 11.0517V18.7976L26.0493 18.7986Z" fill="#F19509"></path></svg>