<svg xmlns="http://www.w3.org/2000/svg" width="122" height="27" viewBox="0 0 122 27" fill="none"><path d="M52.7521 22.1445H55.912C56.007 22.7262 56.3257 23.2482 56.8005 23.6C57.2754 23.9518 57.8692 24.1057 58.4561 24.0293C58.8495 24.078 59.2488 24.0365 59.6237 23.908C59.9985 23.7795 60.3388 23.5673 60.6187 23.2877C60.8985 23.0081 61.1105 22.6686 61.2383 22.295C61.3661 21.9213 61.4064 21.5236 61.3561 21.1321V19.3399C60.9897 19.9955 60.456 20.5433 59.809 20.9279C59.162 21.3125 58.4245 21.5202 57.671 21.5303C54.885 21.5303 52.671 19.3789 52.671 15.8713V15.7138C52.671 12.3187 54.8651 9.93936 57.7161 9.93936C58.4559 9.8915 59.1938 10.0583 59.8401 10.4199C60.4864 10.7815 61.0134 11.3223 61.3571 11.9763V10.2111H64.516V21.1212C64.494 24.6288 62.235 26.4167 58.462 26.4167C54.749 26.4317 53.0601 24.5888 52.7521 22.1445ZM55.912 15.6999V15.88C55.912 17.8494 57.0301 19.0721 58.6121 19.0721C60.2801 19.0721 61.442 17.8495 61.442 15.8353V15.679C61.442 13.6639 60.4111 12.4413 58.6781 12.4413C56.8981 12.4403 55.912 13.7525 55.912 15.6999ZM11.592 19.2843V0.556519C11.592 0.556519 16.984 4.32192 16.984 8.68972V26.3013C16.984 26.3013 11.5911 22.3498 11.5911 19.2852L11.592 19.2843ZM109.723 15.9816V15.8006C109.68 14.9927 109.806 14.1847 110.094 13.4282C110.382 12.6716 110.824 11.983 111.394 11.4061C111.963 10.8291 112.647 10.3764 113.402 10.0769C114.157 9.77744 114.966 9.63762 115.778 9.66639C116.584 9.63228 117.389 9.76637 118.141 10.0599C118.892 10.3535 119.573 10.8 120.141 11.3711C120.709 11.9421 121.151 12.625 121.438 13.3759C121.726 14.1268 121.852 14.9293 121.81 15.7318V15.9141C121.837 16.7184 121.702 17.5199 121.413 18.2714C121.124 19.0229 120.686 19.709 120.126 20.2891C119.566 20.8693 118.894 21.3318 118.151 21.6491C117.409 21.9664 116.609 22.1323 115.801 22.1367C114.993 22.1412 114.192 21.9842 113.445 21.6751C112.699 21.366 112.022 20.9109 111.456 20.337C110.889 19.7631 110.444 19.0819 110.146 18.3336C109.849 17.5854 109.705 16.7853 109.723 15.9807V15.9816ZM112.969 15.7327V15.915C112.969 18.1781 113.979 19.5361 115.778 19.5361C117.555 19.5361 118.586 18.1781 118.586 15.9369V15.7787C118.586 13.5166 117.555 12.1586 115.778 12.1586C114.023 12.1576 112.969 13.4697 112.969 15.7327ZM85.5481 15.9816V15.8006C85.5051 14.9928 85.6315 14.1849 85.9191 13.4284C86.2067 12.6719 86.6492 11.9835 87.2186 11.4065C87.788 10.8296 88.4718 10.377 89.2264 10.0774C89.9811 9.77786 90.7901 9.63776 91.6021 9.66639C92.4085 9.63277 93.2131 9.76721 93.9644 10.0609C94.7156 10.3546 95.3971 10.8011 95.9651 11.372C96.5331 11.9429 96.9753 12.6254 97.2632 13.3762C97.5511 14.1269 97.6784 14.9292 97.6371 15.7318V15.9141C97.6644 16.7185 97.5293 17.5203 97.24 18.2719C96.9507 19.0235 96.5128 19.7096 95.9525 20.2899C95.3922 20.8701 94.7207 21.3327 93.9778 21.6501C93.2348 21.9675 92.4354 22.1332 91.627 22.1377C90.8185 22.1422 90.0174 21.985 89.271 21.6759C88.5245 21.3667 87.8479 20.9118 87.2811 20.3377C86.7144 19.7637 86.269 19.0825 85.9713 18.3341C85.6736 17.5857 85.5298 16.7854 85.5481 15.9807V15.9816ZM88.795 15.7327V15.915C88.795 18.1781 89.8041 19.5361 91.6021 19.5361C93.3791 19.5361 94.411 18.1781 94.411 15.9369V15.7787C94.411 13.5166 93.3801 12.1586 91.6021 12.1586C89.8481 12.1576 88.795 13.4697 88.795 15.7327ZM65.795 16.0067V15.8244C65.7417 15.0261 65.8556 14.2253 66.1294 13.4731C66.4032 12.7209 66.831 12.0336 67.3857 11.4547C67.9405 10.8758 68.61 10.4182 69.3518 10.1105C70.0936 9.8028 70.8916 9.6518 71.6951 9.66736C74.6561 9.66736 77.2891 11.4596 77.2891 15.689V16.593H69.019C69.107 18.5623 70.138 19.6934 71.87 19.6934C73.341 19.6934 74.07 19.0373 74.261 18.0417H77.2671C76.8941 20.5994 74.921 22.1435 71.782 22.1435C70.9714 22.1775 70.1627 22.0408 69.4089 21.742C68.6552 21.4432 67.9733 20.9893 67.408 20.4099C66.8426 19.8306 66.4067 19.1386 66.1285 18.3798C65.8504 17.621 65.7364 16.8124 65.7941 16.0067H65.795ZM69.0641 14.8625H74.197C74.088 13.0704 73.211 12.2162 71.697 12.2162C70.269 12.2152 69.303 13.1899 69.063 14.8616L69.0641 14.8625ZM47.927 22.1445V20.0905C47.5561 20.7397 47.013 21.2749 46.3571 21.6372C45.7011 21.9995 44.9575 22.1749 44.208 22.1445C41.421 22.1445 39.2621 20.2529 39.2621 16.3113V16.1299C39.2621 12.236 41.434 9.95029 44.307 9.95029C45.0439 9.90291 45.7789 10.0703 46.4218 10.4321C47.0647 10.7938 47.5877 11.3342 47.927 11.9872V4.85963H51.0861V22.1445H47.927ZM42.5081 16.0624V16.2447C42.5081 18.5973 43.6081 19.7512 45.1851 19.7512C46.8531 19.7512 48.015 18.5972 48.015 16.1977V16.0176C48.015 13.663 47.007 12.4641 45.274 12.4641C43.495 12.4632 42.5071 13.7077 42.5071 16.0614L42.5081 16.0624ZM27.722 22.1445V4.88637H37.942V8.02954H31.25V12.012H36.6021V14.8239H31.25V19.0631H38.292V22.1496L27.722 22.1445ZM104.777 22.0699V10.233H107.936V22.0699H104.777ZM99.3031 22.0589V4.85963H102.462V22.0589H99.3031ZM79.625 22.0589V12.5538H78.1111V10.222H79.625V8.864C79.625 6.10214 81.1831 4.88151 83.7251 4.88151C84.2822 4.86707 84.8378 4.94379 85.37 5.10854V7.57572C84.9971 7.44162 84.6035 7.37401 84.207 7.3764C84.0149 7.34477 83.8179 7.35882 83.6322 7.41724C83.4465 7.47566 83.2771 7.57699 83.1381 7.71281C82.999 7.84863 82.8941 8.01518 82.8319 8.19896C82.7697 8.38274 82.7519 8.57851 82.78 8.77042V10.2191H85.28V12.5507H82.78V22.056L79.625 22.0589ZM5.29907 14.768V1.01447C5.29907 1.01447 9.11902 3.77932 9.11902 6.98821V19.9253C9.11902 19.9253 5.29907 17.0231 5.29907 14.768ZM0.805054 10.6671V2.38053C0.805054 2.38053 3.276 4.0462 3.276 5.97971V13.7714C3.276 13.7714 0.80603 12.0242 0.80603 10.6671H0.805054ZM104.505 6.6467C104.502 6.28924 104.606 5.9389 104.803 5.64038C105.001 5.34185 105.283 5.10862 105.614 4.97023C105.945 4.83183 106.31 4.79463 106.663 4.86328C107.015 4.93192 107.339 5.10332 107.593 5.35574C107.847 5.60816 108.02 5.93025 108.09 6.28087C108.16 6.6315 108.124 6.99489 107.986 7.32487C107.848 7.65485 107.614 7.93658 107.315 8.13406C107.016 8.33154 106.664 8.43573 106.305 8.43377C106.068 8.43847 105.832 8.39566 105.611 8.30761C105.391 8.21957 105.191 8.08816 105.022 7.92137C104.854 7.75458 104.721 7.55578 104.632 7.33678C104.543 7.11778 104.498 6.88307 104.502 6.6467H104.505Z" fill="#F19509"></path></svg>