<svg xmlns="http://www.w3.org/2000/svg" width="112" height="19" viewBox="0 0 112 19" fill="none"><path d="M85.1371 11.7171C85.1002 10.8928 85.2325 10.0696 85.5258 9.2978C85.819 8.52603 86.2672 7.82187 86.8429 7.22828C87.4186 6.63469 88.1097 6.16426 88.8741 5.84544C89.6386 5.52663 90.4603 5.36628 91.2891 5.37413C92.6817 5.28337 94.0573 5.71932 95.141 6.59484C96.2247 7.47035 96.9365 8.72082 97.134 10.0963H93.7201C93.574 9.56448 93.2521 9.09718 92.8065 8.76985C92.3609 8.44252 91.8175 8.27425 91.264 8.29221C89.487 8.29221 88.458 9.686 88.458 11.7181C88.458 13.7501 89.488 15.1452 91.264 15.1452C91.8177 15.1628 92.3613 14.9942 92.8069 14.6665C93.2525 14.3389 93.5742 13.8712 93.7201 13.3391H97.134C96.9364 14.7145 96.2246 15.965 95.1409 16.8403C94.0572 17.7157 92.6816 18.1513 91.2891 18.0603C90.4603 18.0682 89.6386 17.9078 88.8741 17.589C88.1097 17.2702 87.4186 16.7995 86.8429 16.2059C86.2672 15.6123 85.819 14.9082 85.5258 14.1364C85.2325 13.3646 85.1002 12.5414 85.1371 11.7171ZM42.822 11.7171C42.8099 10.4482 43.1768 9.20435 43.8761 8.14345C44.5754 7.08255 45.5754 6.25261 46.7494 5.75867C47.9234 5.26472 49.2184 5.12911 50.4698 5.36926C51.7213 5.60942 52.8729 6.21448 53.7784 7.10748C54.6839 8.00047 55.3025 9.14116 55.5557 10.3848C55.8088 11.6285 55.685 12.9189 55.2001 14.0924C54.7152 15.2659 53.891 16.2697 52.8322 16.976C51.7733 17.6822 50.5276 18.0593 49.2531 18.0593C48.405 18.0913 47.5594 17.9496 46.7687 17.643C45.9779 17.3364 45.2587 16.8714 44.6558 16.2769C44.0528 15.6824 43.5789 14.9708 43.2633 14.1865C42.9477 13.4022 42.7972 12.5617 42.821 11.7171H42.822ZM46.1431 11.7171C46.1431 13.8925 47.4991 15.1661 49.2531 15.1661C51.0071 15.1661 52.3621 13.8925 52.3621 11.7171C52.3621 9.54166 51.0061 8.26839 49.2531 8.26839C47.5001 8.26839 46.1421 9.54166 46.1421 11.7171H46.1431ZM21.561 11.6943C21.5295 10.875 21.6643 10.0579 21.9574 9.29172C22.2505 8.52558 22.6959 7.8263 23.2668 7.23557C23.8378 6.64485 24.5227 6.17494 25.2804 5.85395C26.0381 5.53296 26.8531 5.36732 27.6765 5.36732C28.5 5.36732 29.3149 5.53296 30.0726 5.85395C30.8303 6.17494 31.5152 6.64485 32.0862 7.23557C32.6572 7.8263 33.1026 8.52558 33.3958 9.29172C33.6889 10.0579 33.8236 10.875 33.792 11.6943C33.792 12.2269 33.745 12.667 33.745 12.667H24.859C24.8814 13.031 24.9764 13.3869 25.1384 13.7139C25.3005 14.041 25.5264 14.3326 25.8029 14.5717C26.0794 14.8109 26.4009 14.9927 26.7488 15.1067C27.0967 15.2208 27.464 15.2647 27.8291 15.2358C28.3086 15.2664 28.7866 15.1581 29.2056 14.924C29.6245 14.6899 29.9665 14.3398 30.1901 13.9164H33.5341C33.1604 15.1465 32.3894 16.2197 31.3407 16.9689C30.292 17.7182 29.0241 18.1018 27.734 18.0603C26.8986 18.0813 26.0679 17.9293 25.2947 17.6138C24.5214 17.2983 23.8224 16.8262 23.2421 16.2276C22.6617 15.6289 22.2126 14.9167 21.9232 14.1362C21.6338 13.3556 21.5105 12.5238 21.561 11.6933V11.6943ZM24.905 10.3005H30.4711C30.3833 9.63945 30.0476 9.03588 29.5314 8.61112C29.0151 8.18636 28.3566 7.9718 27.688 8.01049C27.0204 7.97867 26.3649 8.19625 25.8501 8.6206C25.3353 9.04495 24.9982 9.64543 24.905 10.3044V10.3005ZM36.4561 14.1434V8.24044H34.795V5.65171H36.4561V2.64296H39.776V5.65171H41.811V8.24044H39.776V13.7961C39.776 14.6065 40.15 14.9769 41.016 14.9769C41.2774 14.9781 41.5375 14.939 41.787 14.8612V17.7079C41.2714 17.8115 40.746 17.8581 40.2201 17.8471C37.5321 17.8511 36.4561 16.4863 36.4561 14.1486V14.1434ZM79.5381 17.7776V5.64685H82.858V17.7776H79.5381ZM73.2981 17.7776V10.5783C73.2981 9.23421 72.807 8.18866 71.333 8.18866C69.767 8.18866 68.947 9.18424 68.947 10.8768V17.7754H65.6281V10.5761C65.6281 9.23203 65.1371 8.18672 63.6631 8.18672C62.1201 8.18672 61.2771 9.18227 61.2771 10.8031V17.7725H57.957V5.64199H61.021V7.12425C61.3887 6.53465 61.9134 6.05821 62.5367 5.74749C63.16 5.43676 63.8575 5.30408 64.552 5.36416C65.2427 5.31922 65.9332 5.45347 66.5562 5.75381C67.1791 6.05414 67.7132 6.51024 68.1061 7.07758C68.6095 6.50353 69.2373 6.0509 69.9423 5.75405C70.6472 5.4572 71.4107 5.32395 72.175 5.36416C75.123 5.36416 76.618 7.3782 76.618 10.2018V17.7686L73.2981 17.7776ZM16.098 17.7776V10.5783C16.098 9.23421 15.6071 8.18866 14.1331 8.18866C12.5661 8.18866 11.748 9.18424 11.748 10.8768V17.7754H8.427V10.5761C8.427 9.23203 7.93604 8.18672 6.46204 8.18672C4.91904 8.18672 4.07703 9.18227 4.07703 10.8031V17.7725H0.75708V5.64199H3.82007V7.12425C4.1882 6.53457 4.71317 6.05795 5.33679 5.74724C5.96042 5.43653 6.65829 5.30404 7.35303 5.36416C8.04353 5.3194 8.73394 5.45372 9.35669 5.75405C9.97944 6.05438 10.5132 6.51039 10.906 7.07758C11.4094 6.50328 12.0375 6.05043 12.7427 5.75356C13.4478 5.4567 14.2116 5.32365 14.9761 5.36416C17.9221 5.36416 19.4181 7.3782 19.4181 10.2018V17.7686L16.098 17.7776ZM100.077 17.658V14.5518H111.767V17.658H100.077ZM79.192 2.10432C79.1853 1.70695 79.2975 1.31671 79.5143 0.983023C79.7311 0.64934 80.0429 0.38746 80.4097 0.230714C80.7765 0.0739684 81.1818 0.0294681 81.5741 0.102858C81.9664 0.176248 82.3279 0.364104 82.6125 0.642722C82.8972 0.921339 83.0922 1.27799 83.1726 1.66727C83.253 2.05656 83.2151 2.46084 83.064 2.82867C82.9128 3.1965 82.6551 3.51136 82.3237 3.7329C81.9923 3.95444 81.6022 4.07266 81.203 4.07272C80.939 4.08393 80.6756 4.04119 80.4288 3.94705C80.1821 3.85291 79.9574 3.70931 79.7686 3.52532C79.5797 3.34132 79.4308 3.12084 79.3309 2.87729C79.2311 2.63373 79.1824 2.37242 79.188 2.10942L79.192 2.10432Z" fill="#F19509"></path></svg>