<svg xmlns="http://www.w3.org/2000/svg" width="148" height="23" viewBox="0 0 148 23" fill="none"><path d="M59.9811 22.4406V5.42136H61.0741L61.4541 7.04509H61.5741C62.0277 6.4894 62.5947 6.03622 63.2375 5.71524C63.8804 5.39426 64.5845 5.21294 65.3031 5.18339C68.0131 5.18339 69.9131 7.54601 69.9131 11.655C69.9131 15.7639 68.0131 18.1265 65.3031 18.1265C64.586 18.1018 63.8824 17.925 63.2394 17.608C62.5963 17.2911 62.0286 16.8414 61.5741 16.2886H61.4541V22.4474L59.9811 22.4406ZM61.453 8.76264V14.564C62.689 16.1391 63.8061 16.9257 65.1841 16.9257C67.2281 16.9257 68.438 15.0889 68.438 11.6749C68.438 8.26089 67.2271 6.42379 65.1841 6.42379C63.8061 6.42379 62.689 7.18656 61.453 8.76264ZM81.4341 22.2971V21.1024C81.7786 21.1675 82.1283 21.2007 82.479 21.2019C84.262 21.2019 85.068 20.1984 85.545 17.8358L81.2211 5.42331H82.693L86.3521 16.0456L89.988 5.42331H91.3881L86.708 18.8851C85.852 21.3682 84.854 22.3937 82.717 22.3937C82.2875 22.3935 81.8587 22.361 81.4341 22.2962V22.2971ZM0.833984 19.2694C0.833984 18.1046 1.52099 17.4634 2.98999 16.9875C1.87699 16.4389 1.35608 15.94 1.35608 15.0837C1.41444 14.5593 1.61791 14.0613 1.94385 13.6452C2.26979 13.2291 2.70533 12.9113 3.20203 12.7271C2.64526 12.3897 2.19071 11.9085 1.88647 11.3346C1.58224 10.7607 1.43964 10.1156 1.474 9.46755C1.474 6.92173 3.37399 5.13551 6.18799 5.13551C7.35379 5.12233 8.48593 5.52469 9.38 6.26968C9.97346 6.77494 10.422 7.42752 10.6801 8.16127C10.8393 8.66132 10.915 9.18396 10.9041 9.70843C10.9041 12.1129 9.15209 13.6829 6.26208 13.6829C5.80756 13.6904 5.35375 13.6424 4.91101 13.5397C4.36601 13.7548 4.10498 14.0375 4.10498 14.372C4.10498 15.2054 5.2441 15.1335 7.3761 15.3008C10.5761 15.5388 11.9241 16.157 11.9241 18.5375C11.9241 20.9888 9.91107 22.3917 6.09607 22.3917C2.61507 22.3867 0.842041 21.2926 0.842041 19.2685L0.833984 19.2694ZM3.62903 18.915C3.62903 19.7235 4.52902 20.294 6.04602 20.294C8.10602 20.294 9.26709 19.6279 9.26709 18.7478C9.26709 18.0578 8.72301 17.796 7.60901 17.7522L4.88501 17.6097C4.03601 18.008 3.63306 18.3894 3.63306 18.9141L3.62903 18.915ZM4.24609 9.49137C4.224 9.75779 4.26134 10.0259 4.35547 10.2762C4.4496 10.5266 4.59815 10.7531 4.79053 10.9396C4.9829 11.1261 5.21426 11.268 5.46814 11.355C5.72202 11.442 5.99213 11.4718 6.25903 11.4428C6.52755 11.4604 6.79677 11.421 7.04871 11.3268C7.30065 11.2327 7.52957 11.086 7.72009 10.8968C7.91061 10.7076 8.05838 10.4802 8.15356 10.2296C8.24875 9.97897 8.28918 9.71111 8.27209 9.44372C8.28605 9.16885 8.24141 8.89397 8.14124 8.63745C8.04106 8.38093 7.88758 8.14844 7.6908 7.95515C7.49401 7.76185 7.25837 7.61218 6.99939 7.51592C6.74041 7.41966 6.46386 7.37895 6.18799 7.39657C5.91804 7.39205 5.65029 7.44438 5.4021 7.55019C5.15391 7.656 4.93093 7.81294 4.74792 8.01057C4.56492 8.2082 4.42602 8.44214 4.34021 8.69701C4.2544 8.95187 4.2236 9.22191 4.25 9.48942L4.24609 9.49137ZM134.435 15.496V6.63502H132.582V5.4182H134.435V1.71864H135.884V5.4182H138.474V6.63502H135.884V15.5638C135.884 16.5176 136.311 16.9714 137.238 16.9714C137.682 16.9435 138.121 16.8638 138.546 16.7337V17.9284C138.004 18.0772 137.445 18.1572 136.882 18.1664C135.176 18.1674 134.442 17.3071 134.442 15.494L134.435 15.496ZM70.8571 14.7991C70.8571 11.9118 73.257 10.6176 78.457 9.69263V8.47484C78.457 7.25818 77.4351 6.42185 75.7251 6.42185C75.0702 6.42123 74.4293 6.61048 73.8807 6.96657C73.3322 7.32267 72.8996 7.83036 72.636 8.4272L71.495 7.75802C71.8936 6.94343 72.527 6.26568 73.3142 5.81101C74.1014 5.35633 75.0069 5.14539 75.915 5.20527C78.267 5.20527 79.906 6.61302 79.906 8.47484V16.2318C79.9354 16.7931 80.0066 17.3515 80.119 17.9024H78.67C78.5485 17.3604 78.4689 16.8098 78.432 16.2556C77.8865 16.8314 77.2324 17.2944 76.5068 17.618C75.7813 17.9416 74.9988 18.1194 74.2041 18.1413C73.7582 18.1635 73.3126 18.092 72.8962 17.9318C72.4798 17.7716 72.1019 17.5262 71.7869 17.2113C71.4718 16.8965 71.2267 16.5191 71.0674 16.1039C70.9081 15.6887 70.8381 15.2449 70.8621 14.801L70.8571 14.7991ZM72.3311 14.7284C72.2951 15.0145 72.3225 15.3049 72.4113 15.5794C72.5 15.8538 72.648 16.1056 72.8448 16.3171C73.0417 16.5285 73.2826 16.6945 73.5508 16.8035C73.8189 16.9124 74.1078 16.9616 74.3971 16.9476C75.7521 16.9476 76.987 16.2079 78.436 14.7284V10.8854C74.26 11.8193 72.3361 12.6066 72.3361 14.7303L72.3311 14.7284ZM32.7311 16.5662L32.4231 17.9034H30.1421C30.2371 16.5662 30.2841 15.5887 30.2841 14.9914V0.55481H33.1841V6.59321C33.5358 6.13192 33.9933 5.76104 34.5183 5.51179C35.0434 5.26253 35.6206 5.1422 36.202 5.16055C38.888 5.16055 40.953 7.61973 40.953 11.653C40.953 15.5439 38.9351 18.1455 36.1071 18.1455C35.4633 18.1492 34.8269 18.0094 34.2446 17.7361C33.6623 17.4629 33.1489 17.063 32.7421 16.5662H32.7311ZM33.1591 8.64304V14.5849C33.4336 14.9053 33.7713 15.1661 34.1514 15.3509C34.5314 15.5357 34.9455 15.6407 35.368 15.6593C37.008 15.6593 38.005 14.2504 38.005 11.6489C38.005 9.02242 36.9831 7.59078 35.3921 7.59078C34.5401 7.63659 33.7408 8.01561 33.1681 8.64523L33.1591 8.64304ZM18.0011 11.6489C18.0011 7.54491 20.001 5.15641 23.323 5.15641C26.645 5.15641 28.646 7.54591 28.646 11.6489C28.646 15.7518 26.625 18.1413 23.323 18.1413C20.021 18.1413 18.01 15.7319 18.01 11.6498L18.0011 11.6489ZM20.9711 11.6489C20.9711 14.2992 21.755 15.6114 23.323 15.6114C24.915 15.6114 25.676 14.3002 25.676 11.6489C25.676 8.99753 24.916 7.71135 23.323 7.71135C21.764 7.71334 20.98 8.9995 20.98 11.6498L20.9711 11.6489ZM138.92 15.6603L140.014 14.7772C140.414 15.4173 140.965 15.95 141.619 16.3287C142.274 16.7075 143.012 16.9206 143.768 16.9496C144.09 16.9806 144.416 16.9446 144.724 16.8441C145.031 16.7435 145.315 16.5804 145.556 16.3652C145.797 16.15 145.991 15.8873 146.125 15.5937C146.259 15.3001 146.33 14.9822 146.334 14.6598C146.334 13.1554 145.169 12.8219 143.126 12.0563C140.607 11.1264 139.301 10.4105 139.301 8.50085C139.301 6.59124 140.845 5.18339 143.316 5.18339C144.141 5.19812 144.949 5.41457 145.67 5.81392C146.391 6.21328 147.003 6.7833 147.45 7.47338L146.405 8.23687C146.051 7.66953 145.557 7.20116 144.971 6.87566C144.385 6.55017 143.726 6.37833 143.055 6.37615C142.769 6.34798 142.481 6.38038 142.209 6.47119C141.937 6.562 141.687 6.70904 141.476 6.90289C141.265 7.09674 141.098 7.33302 140.985 7.59589C140.872 7.85876 140.817 8.14241 140.822 8.42817C140.822 9.76529 142.032 10.076 144.1 10.8635C146.571 11.7944 147.831 12.556 147.831 14.5393C147.831 16.6151 146.167 18.1236 143.603 18.1236C142.679 18.1387 141.766 17.9209 140.949 17.4904C140.132 17.0599 139.437 16.4306 138.93 15.6613L138.92 15.6603ZM110.457 11.7466C110.457 7.61674 112.5 5.18242 115.471 5.18242C118.464 5.18242 120.128 7.25924 120.128 11.2208V11.627H111.928C111.951 15.0888 113.258 16.9257 115.611 16.9257C117.203 16.9257 118.225 16.1392 119.103 14.3013L120.197 14.8988C119.103 17.1429 117.702 18.1204 115.516 18.1204C112.442 18.1184 110.467 15.6614 110.467 11.7476L110.457 11.7466ZM111.93 10.5516H118.749C118.678 7.8555 117.443 6.39997 115.494 6.39997C113.545 6.39997 112.179 7.88061 111.942 10.5529L111.93 10.5516ZM41.8301 14.7055C41.8301 11.9128 44.13 10.4332 48.886 9.8358V8.85719C48.886 7.95018 48.2691 7.42452 47.1281 7.42452C46.5887 7.41696 46.056 7.5442 45.5787 7.79448C45.1015 8.04476 44.6948 8.41007 44.396 8.85719L42.396 7.59273C42.9014 6.79919 43.611 6.15491 44.451 5.72666C45.2911 5.29841 46.231 5.10178 47.1731 5.15739C50.0931 5.15739 51.733 6.56725 51.733 8.85719V16.2099C51.7519 16.7782 51.8158 17.3441 51.9241 17.9024H49.124L48.8611 16.8074C47.7959 17.6138 46.4942 18.0496 45.156 18.0478C44.7077 18.0848 44.2567 18.0234 43.8348 17.8679C43.4129 17.7124 43.0304 17.4667 42.7144 17.1479C42.3983 16.8292 42.1563 16.4452 42.0056 16.0232C41.8549 15.6012 41.7991 15.1514 41.842 14.7055H41.8301ZM44.73 14.4666C44.7107 14.6457 44.7318 14.8269 44.7916 14.997C44.8515 15.167 44.9486 15.3216 45.0759 15.4496C45.2033 15.5775 45.3577 15.6755 45.528 15.7366C45.6982 15.7977 45.88 15.8203 46.0601 15.8027C46.5804 15.7757 47.0901 15.6456 47.5593 15.4201C48.0286 15.1947 48.4481 14.8782 48.7931 14.4894V11.8171C46.0421 12.1994 44.7421 12.988 44.7421 14.4675L44.73 14.4666ZM54.23 17.9094V0.556754H57.1791V17.9094H54.23ZM13.41 17.9094V0.556754H16.36V17.9094H13.41ZM129.724 17.9043V9.74027C129.724 7.5499 129.297 6.49355 127.394 6.49355C126.158 6.49355 124.853 7.25812 123.521 8.80931V17.9034H122.049V5.41942H123.521V7.37761C124.609 6.11525 126.155 5.3341 127.821 5.20527C130.054 5.20527 131.171 6.54214 131.172 9.21572V17.9034L129.724 17.9043ZM107.153 17.9043V9.74027C107.153 7.5499 106.773 6.49355 105.015 6.49355C103.875 6.49355 102.639 7.25812 101.428 8.80931V17.9034H100.001V9.7393C100.001 7.54893 99.621 6.49258 97.863 6.49258C96.722 6.49258 95.511 7.25715 94.275 8.80833V17.9024H92.849V5.4182H94.203V7.35184H94.2981C94.7761 6.73649 95.378 6.22753 96.0653 5.85768C96.7526 5.48782 97.5102 5.26527 98.2891 5.2043C98.9522 5.18854 99.6022 5.39016 100.139 5.77819C100.676 6.16622 101.07 6.71914 101.26 7.35184H101.427C101.907 6.73816 102.509 6.23028 103.196 5.86059C103.883 5.49091 104.64 5.26749 105.418 5.2043C107.508 5.2043 108.553 6.54117 108.554 9.21475V17.9024L107.153 17.9043ZM8.85303 4.48942C8.85579 4.18492 8.94901 3.88806 9.12097 3.63624C9.29294 3.38442 9.53594 3.18879 9.81934 3.07425C10.1027 2.95972 10.4139 2.93135 10.7135 2.99258C11.0131 3.05382 11.2878 3.20202 11.5029 3.41845C11.7181 3.63487 11.8641 3.90977 11.9225 4.20867C11.9809 4.50758 11.9491 4.81712 11.8312 5.09808C11.7132 5.37903 11.5143 5.61906 11.2596 5.78767C11.005 5.95629 10.7059 6.04595 10.4 6.04557C9.98987 6.04032 9.59842 5.87404 9.31091 5.58276C9.02341 5.29148 8.86311 4.89878 8.86499 4.49039L8.85303 4.48942Z" fill="#F19509"></path></svg>